<?xml version="1.0" standalone="no"?>
<!DOCTYPE svg PUBLIC "-//W3C//DTD SVG 20010904//EN"
 "http://www.w3.org/TR/2001/REC-SVG-20010904/DTD/svg10.dtd">
<svg version="1.0" xmlns="http://www.w3.org/2000/svg"
 width="580.000000pt" height="580.000000pt" viewBox="0 0 580.000000 580.000000"
 preserveAspectRatio="xMidYMid meet">

<g transform="translate(0.000000,580.000000) scale(0.100000,-0.100000)"
fill="#000000" stroke="none">
<path d="M115 5617 c-13 -45 -15 -372 -15 -2741 1 -1480 5 -2711 9 -2735 5
-25 17 -51 27 -58 15 -11 516 -13 2762 -13 1831 0 2750 3 2762 10 11 6 24 27
30 48 7 25 10 904 9 2752 -1 2835 0 2795 -40 2780 -21 -7 -5459 -6 -5496 1
-32 7 -33 6 -48 -44z m3641 -639 c15 -19 16 -20 2 -9 -22 17 -24 8 -3 -13 14
-14 13 -17 -11 -33 -15 -9 -33 -18 -40 -19 -6 -1 -38 -22 -69 -45 -106 -81
-180 -125 -143 -85 7 8 14 13 16 11 2 -2 13 7 25 19 12 11 33 29 47 39 50 36
-7 2 -76 -45 -39 -26 -77 -48 -85 -48 -19 0 -59 -29 -41 -30 18 0 27 4 25 12
-2 4 6 6 17 5 18 -1 17 -4 -8 -24 -20 -17 -29 -19 -37 -10 -5 7 -23 13 -38 14
-23 1 -26 -2 -16 -13 12 -15 0 -19 -17 -6 -5 4 1 -3 13 -16 43 -43 19 -57 -39
-22 -25 15 -29 20 -16 25 9 4 14 13 11 21 -3 8 0 15 6 15 6 1 15 2 19 3 5 0
33 17 63 37 51 35 174 113 236 151 15 10 53 34 83 53 30 19 55 35 56 35 0 0 9
-10 20 -22z m-386 -287 c0 -14 -18 -23 -31 -15 -8 4 -7 9 2 15 18 11 29 11 29
0z m-67 -60 c16 -16 17 -22 5 -65 -10 -37 -14 -43 -20 -29 -5 11 -6 2 -3 -22
2 -24 1 -35 -4 -26 -11 17 -24 -67 -15 -95 4 -13 3 -15 -3 -7 -6 9 -9 -5 -9
-38 0 -28 -5 -53 -11 -57 -15 -10 -32 -75 -26 -105 6 -30 -33 -179 -50 -189
-9 -6 -9 -8 1 -8 6 0 12 -5 12 -10 0 -6 -21 -10 -49 -9 l-48 2 11 30 c11 29
11 30 14 4 2 -19 8 -24 22 -20 18 5 52 105 65 193 l5 35 -10 -32 c-6 -18 -15
-33 -21 -33 -6 0 -7 9 -3 23 4 12 7 28 7 35 0 6 4 12 8 12 5 0 6 7 3 15 -4 8
-2 15 4 15 6 0 13 -6 15 -12 4 -8 6 -7 6 4 1 9 -4 18 -9 20 -6 2 -8 17 -4 36
5 22 11 31 20 28 8 -3 14 1 14 10 0 8 -4 12 -10 9 -5 -3 -10 -1 -10 4 0 6 6
11 13 11 8 0 7 4 -3 10 -12 7 -12 10 -1 10 7 0 11 6 8 14 -3 8 -1 16 5 18 6 2
4 9 -5 16 -12 10 -16 3 -27 -50 -29 -148 -82 -338 -93 -338 -5 0 -6 3 -4 8 5
6 72 305 112 493 l16 75 32 -4 c35 -5 28 13 -7 20 -11 1 -21 9 -24 16 -6 18
47 5 71 -17z m1277 -114 c0 -2 -8 -19 -17 -38 -10 -19 -19 -65 -21 -106 -3
-53 -8 -73 -18 -73 -20 0 -27 43 -20 120 8 91 13 100 47 100 16 0 29 -2 29 -3z
m-270 -99 c0 -2 -8 -25 -19 -53 -23 -62 -36 -160 -18 -131 48 75 54 81 81 84
24 3 28 1 22 -15 -4 -10 -10 -40 -13 -67 -5 -40 -4 -48 8 -41 9 5 8 1 -3 -10
-29 -31 -51 -12 -46 40 3 38 1 42 -11 30 -8 -8 -22 -44 -31 -81 -17 -66 -17
-66 -34 -43 -29 42 -18 235 16 277 9 10 48 18 48 10z m240 -158 c0 -24 -26
-38 -42 -22 -16 16 -2 42 22 42 13 0 20 -7 20 -20z m-376 -20 c25 -9 38 -50
16 -50 -5 0 -10 7 -10 16 0 8 -4 12 -10 9 -16 -10 -13 -68 3 -62 10 4 13 -6
11 -37 -2 -56 -1 -54 -28 -71 -50 -33 -76 17 -35 69 20 25 20 28 5 45 -21 23
-20 50 1 73 19 21 15 20 47 8z m-130 -66 c27 -10 19 -60 -15 -99 -25 -28 -29
-39 -20 -48 10 -9 19 -5 42 21 36 40 39 25 3 -17 -32 -38 -67 -41 -89 -7 -22
33 -10 93 26 128 30 31 30 31 53 22z m-878 -61 c-10 -10 -19 5 -10 18 6 11 8
11 12 0 2 -7 1 -15 -2 -18z m624 19 c0 -4 -20 -18 -45 -30 -42 -20 -45 -24
-45 -61 l0 -40 30 17 c21 12 32 14 40 6 9 -9 0 -18 -32 -36 l-43 -24 2 -67 c1
-37 -2 -67 -6 -67 -31 0 -41 14 -41 60 0 30 -5 50 -12 53 -10 4 -10 7 0 18 6
7 12 30 12 50 0 28 -4 36 -16 35 -39 -3 -19 22 44 55 64 35 112 48 112 31z
m139 -48 c14 -32 8 -43 -22 -37 -27 5 -47 -28 -47 -81 0 -38 -6 -47 -26 -39
-10 4 -14 26 -14 84 0 72 2 79 20 79 15 0 20 -7 21 -27 1 -27 2 -27 17 9 20
44 34 48 51 12z m618 -12 c10 -6 7 -18 -9 -51 -12 -24 -23 -69 -26 -100 -5
-77 -9 -86 -27 -71 -18 15 -19 69 -4 142 18 83 33 101 66 80z m-1527 -23 c23
1 23 0 7 -16 -13 -13 -20 -14 -29 -5 -7 7 -19 12 -27 12 -14 0 -14 -2 -1 -11
12 -9 11 -9 -5 -3 -18 7 -56 11 -112 13 -13 1 -23 6 -23 12 0 9 23 10 83 4 45
-4 93 -7 107 -6z m-325 -9 c-3 -5 2 -10 12 -11 10 -1 0 -5 -21 -10 -21 -5 -41
-7 -44 -4 -3 3 2 5 12 5 9 0 14 5 11 10 -9 14 -21 12 -38 -5 -13 -12 -16 -12
-20 0 -6 15 11 22 61 24 20 1 31 -3 27 -9z m42 4 c-3 -3 -12 -4 -19 -1 -8 3
-5 6 6 6 11 1 17 -2 13 -5z m41 -19 c2 -27 -5 -30 -28 -15 -13 9 -12 12 4 25
11 8 20 15 21 15 0 0 2 -11 3 -25z m45 8 c9 -9 -13 -34 -24 -27 -14 8 -11 34
4 34 8 0 17 -3 20 -7z m242 -3 c3 -5 -1 -10 -10 -10 -9 0 -13 5 -10 10 3 6 8
10 10 10 2 0 7 -4 10 -10z m78 -10 c-5 -19 -23 -29 -23 -12 0 7 20 32 26 32 1
0 0 -9 -3 -20z m-590 -10 c-5 -20 -33 -29 -33 -10 0 6 6 10 13 10 8 0 7 4 -3
10 -12 8 -11 10 7 10 16 0 20 -5 16 -20z m47 -1 c0 -5 -10 -9 -21 -9 -18 0
-19 2 -9 15 12 15 30 12 30 -6z m280 11 c0 -5 -7 -10 -15 -10 -8 0 -15 5 -15
10 0 6 7 10 15 10 8 0 15 -4 15 -10z m30 -10 c-15 -12 -19 -20 -11 -20 8 0 12
-2 9 -5 -3 -3 -12 -3 -21 1 -14 5 -14 7 1 25 9 10 23 19 32 19 10 0 7 -7 -10
-20z m437 -7 c67 -20 81 -35 60 -66 -11 -17 -32 -27 -73 -35 -84 -17 -98 -13
-26 7 34 10 65 21 69 24 21 22 -42 63 -78 52 -11 -4 -19 -2 -19 4 0 6 -5 11
-11 11 -5 0 -7 -4 -4 -10 13 -22 -11 -8 -28 16 l-19 25 39 -6 c21 -4 62 -14
90 -22z m-842 -10 c-2 -16 -4 -30 -4 -32 -1 -2 -8 2 -16 9 -13 11 -13 15 -3
22 15 11 -21 3 -64 -14 -31 -12 -38 -44 -10 -51 165 -45 341 -61 571 -53 130
4 170 3 151 -5 -42 -18 -407 -16 -535 3 -127 19 -214 46 -229 70 -20 33 43 73
121 77 18 1 21 -4 18 -26z m222 11 c-3 -3 -12 -4 -19 -1 -8 3 -5 6 6 6 11 1
17 -2 13 -5z m263 2 c0 -3 -4 -8 -10 -11 -5 -3 -10 -1 -10 4 0 6 5 11 10 11 6
0 10 -2 10 -4z m240 -6 c0 -5 -7 -10 -15 -10 -8 0 -15 5 -15 10 0 6 7 10 15
10 8 0 15 -4 15 -10z m-480 -9 c0 -10 -53 -31 -77 -31 -8 0 -11 5 -8 10 3 6
19 10 35 10 16 0 32 5 35 10 8 12 15 13 15 1z m133 -17 c15 -8 27 -19 27 -24
0 -5 10 -12 23 -16 l22 -8 -25 -6 c-14 -4 -33 -3 -42 2 -25 12 -46 9 -24 -4
28 -16 78 -12 93 7 13 19 37 10 29 -10 -3 -8 4 -15 17 -18 12 -2 -24 -5 -80
-6 -100 -1 -131 8 -96 28 10 6 14 10 8 10 -5 0 -19 -6 -29 -14 -11 -8 -34 -15
-50 -15 -28 1 -29 2 -13 14 9 7 17 17 17 22 0 5 9 15 21 22 12 7 18 16 15 19
-3 4 -17 -4 -31 -17 -18 -17 -28 -21 -36 -13 -8 8 -4 15 17 26 35 18 101 19
137 1z m67 6 c0 -5 -5 -10 -11 -10 -5 0 -7 5 -4 10 3 6 8 10 11 10 2 0 4 -4 4
-10z m255 -49 c-10 -9 -24 21 -17 37 4 12 7 10 14 -8 5 -13 6 -25 3 -29z
m-755 18 c0 -5 -4 -9 -8 -9 -5 0 -9 7 -9 15 0 8 4 12 9 9 4 -3 8 -9 8 -15z
m24 -9 c-6 -6 -10 -2 -11 12 -2 16 1 18 10 9 7 -7 8 -14 1 -21z m146 20 c0 -5
-7 -10 -15 -10 -8 0 -15 5 -15 10 0 6 7 10 15 10 8 0 15 -4 15 -10z m617 4
c-3 -3 -12 -4 -19 -1 -8 3 -5 6 6 6 11 1 17 -2 13 -5z m117 -3 c11 -18 -19
-30 -54 -21 -32 7 -32 8 -7 9 15 1 27 6 27 11 0 12 27 13 34 1z m-814 -16 c0
-8 -7 -15 -15 -15 -16 0 -20 12 -8 23 11 12 23 8 23 -8z m717 -1 c-3 -3 -12
-4 -19 -1 -8 3 -5 6 6 6 11 1 17 -2 13 -5z m-217 -14 c0 -5 -2 -10 -4 -10 -3
0 -8 5 -11 10 -3 6 -1 10 4 10 6 0 11 -4 11 -10z m1280 -16 c-13 -33 -13 -34
8 -28 12 4 10 0 -5 -12 -19 -14 -23 -26 -23 -75 0 -45 3 -59 14 -59 8 0 18 5
21 10 3 6 11 10 17 10 6 0 3 -9 -7 -20 -20 -22 -64 -27 -83 -8 -7 7 -12 33
-12 59 0 37 -4 49 -17 52 -16 4 -15 6 4 12 12 4 24 19 28 33 9 36 23 52 46 52
16 0 17 -4 9 -26z m-1715 6 c3 -5 -1 -10 -9 -10 -9 0 -16 5 -16 10 0 6 4 10 9
10 6 0 13 -4 16 -10z m690 1 c-30 -12 -115 -20 -115 -10 0 7 35 12 115 17 l20
1 -20 -8z m114 -48 c-1 -25 -3 -30 -6 -15 -3 15 -10 22 -18 18 -8 -3 -17 -1
-20 5 -5 7 17 22 43 28 1 1 1 -16 1 -36z m-974 7 c3 -5 2 -10 -4 -10 -5 0 -13
5 -16 10 -3 6 -2 10 4 10 5 0 13 -4 16 -10z m784 6 c-2 -2 -17 -6 -34 -10 -22
-5 -26 -4 -15 4 14 9 59 15 49 6z m-859 -10 c0 -3 -4 -8 -10 -11 -5 -3 -10 -1
-10 4 0 6 5 11 10 11 6 0 10 -2 10 -4z m950 -6 c0 -5 -8 -10 -17 -10 -15 0
-16 2 -3 10 19 12 20 12 20 0z m734 -27 c-5 -10 -9 -69 -9 -131 0 -61 -3 -112
-7 -112 -21 0 -48 43 -48 75 l0 34 -42 -19 c-48 -21 -62 -48 -55 -103 6 -40
-13 -61 -35 -39 -11 11 -15 119 -4 129 3 4 6 35 6 70 0 53 3 63 18 63 36 0 43
-14 33 -59 -8 -38 -7 -42 7 -36 10 4 29 11 43 17 22 8 27 17 32 59 8 62 12 69
44 69 20 0 24 -3 17 -17z m-685 -39 c35 -35 40 -46 44 -99 5 -53 4 -57 -6 -30
-8 21 -18 30 -29 27 -15 -3 -18 5 -20 45 l-1 48 -4 -42 c-5 -49 -11 -52 -42
-19 -16 17 -21 31 -16 45 5 15 2 21 -9 21 -10 0 -16 -9 -16 -21 0 -20 -67
-118 -82 -119 -4 0 -9 17 -11 38 -2 20 -4 2 -5 -40 -1 -42 2 -80 8 -83 6 -3 7
1 4 9 -10 26 49 106 79 106 7 0 8 -171 1 -218 -8 -53 -21 -50 -55 12 -24 44
-27 46 -32 24 -4 -12 -6 -70 -5 -128 0 -58 3 -93 5 -79 4 26 5 26 33 12 28
-13 29 -17 23 -61 -3 -26 -9 -54 -14 -63 -4 -9 -5 -29 -1 -44 6 -22 12 -1 25
91 10 65 21 135 24 154 3 19 7 44 9 56 4 30 25 107 28 103 3 -4 -5 -69 -18
-146 -3 -19 -1 -33 4 -33 6 0 10 9 10 20 0 24 25 26 48 4 14 -15 14 -19 1 -43
-9 -16 -25 -27 -42 -29 -31 -4 -38 -35 -11 -50 23 -13 10 -97 -23 -160 -14
-26 -30 -74 -37 -107 -12 -60 -13 -60 -26 -32 -16 33 -33 36 -20 3 8 -21 6
-23 -13 -20 -13 3 -7 -3 14 -13 l35 -18 -16 -75 c-22 -101 -43 -137 -35 -60 4
30 9 63 11 73 3 9 1 17 -3 17 -10 0 -32 -142 -34 -221 -2 -53 -2 -54 -9 -14
-7 38 -7 37 -9 -20 -2 -71 -10 -107 -22 -99 -5 3 -10 29 -10 57 -1 29 -4 40
-6 25 -4 -24 -33 -49 -33 -28 0 6 5 10 10 10 6 0 10 17 10 38 0 56 11 112 21
106 5 -3 9 0 9 5 0 6 -5 11 -10 11 -7 0 -7 6 -1 18 6 10 7 28 4 40 -3 12 2 33
11 47 18 28 21 39 6 30 -19 -12 -23 26 -4 41 17 14 17 15 2 10 -14 -4 -18 0
-18 19 0 14 4 25 9 25 4 0 6 12 3 26 -3 17 -1 25 6 21 5 -4 12 -1 15 7 3 8 -1
17 -9 20 -20 7 -18 66 3 96 16 24 16 24 0 11 -20 -16 -22 -8 -5 22 15 28 19
74 22 287 1 96 6 183 10 193 5 9 4 23 -2 30 -5 6 -8 23 -7 37 2 14 4 32 5 40
1 8 6 4 11 -10 7 -22 8 -20 6 12 -3 36 -1 37 40 47 50 13 58 26 11 17 -23 -4
-29 -3 -18 4 8 5 41 8 73 6 51 -3 61 -7 96 -42z m-556 29 c-7 -2 -19 -2 -25 0
-7 3 -2 5 12 5 14 0 19 -2 13 -5z m70 0 c-7 -2 -21 -2 -30 0 -10 3 -4 5 12 5
17 0 24 -2 18 -5z m63 -2 c-3 -5 -15 -7 -26 -4 -28 7 -25 13 6 13 14 0 23 -4
20 -9z m68 -7 c10 -26 7 -34 -13 -34 -10 0 -22 7 -25 16 -3 9 -11 12 -18 8 -9
-5 -9 -3 1 9 17 21 47 22 55 1z m386 7 c0 -5 3 -18 7 -28 6 -17 5 -17 -15 1
-12 10 -19 23 -16 27 7 12 24 11 24 0z m-980 -11 c8 -5 11 -12 8 -16 -10 -9
-38 3 -38 16 0 12 10 13 30 0z m1792 -14 c25 -37 -5 -117 -53 -141 -28 -15
-33 -15 -55 0 -38 24 -30 99 15 144 16 16 28 19 53 14 18 -3 36 -11 40 -17z
m311 18 c10 -10 -12 -44 -28 -44 -18 0 -27 14 -19 34 6 16 35 22 47 10z
m-1686 -15 c-10 -6 -32 -7 -50 -4 -25 6 -29 4 -21 -5 7 -7 24 -13 38 -13 31
-2 32 -8 5 -38 l-20 -24 4 28 c3 18 0 26 -7 24 -6 -2 -11 -25 -12 -52 l-1 -48
19 26 c11 15 25 24 33 20 10 -3 15 1 15 12 0 12 5 15 20 10 12 -4 26 -2 33 3
7 6 30 13 52 17 22 4 48 9 59 12 11 3 16 1 12 -5 -3 -5 2 -9 11 -8 34 2 22
-23 -22 -47 -37 -21 -45 -23 -45 -10 0 21 -11 10 -14 -14 -2 -13 -13 -19 -40
-21 -20 -2 -34 -7 -31 -12 3 -5 13 -7 23 -4 9 3 1 -8 -18 -26 l-35 -31 45 27
c25 14 40 21 34 14 -15 -16 -5 -53 12 -46 8 3 14 -1 14 -8 0 -8 3 -21 6 -29 4
-10 -4 -16 -28 -20 -26 -4 -37 -1 -55 19 -32 35 -39 29 -8 -7 14 -18 24 -38
21 -45 -3 -8 0 -14 6 -14 6 0 9 -3 6 -6 -4 -3 -16 0 -28 6 -18 9 -21 9 -15 0
4 -7 1 -16 -6 -21 -10 -6 -4 -9 19 -9 17 0 32 -4 32 -9 0 -5 15 -16 32 -24 32
-16 33 -17 35 -89 1 -40 5 -86 7 -103 15 -78 14 -83 -10 -106 -17 -16 -27 -20
-35 -12 -17 17 -79 -6 -79 -29 0 -10 5 -18 11 -18 8 0 8 -4 2 -12 -11 -15 -2
-60 13 -65 6 -2 19 7 30 19 l19 22 -27 -17 c-34 -21 -37 -14 -4 8 15 10 33 14
50 9 22 -5 26 -12 26 -41 0 -27 -3 -34 -15 -29 -10 4 -15 -1 -15 -14 0 -12 -5
-17 -13 -14 -8 3 -19 -2 -26 -10 -7 -8 -20 -12 -29 -9 -14 6 -15 4 -5 -9 7 -8
9 -19 5 -23 -4 -5 -2 -5 5 -1 6 3 14 2 18 -3 3 -6 -4 -15 -15 -21 -13 -7 -20
-21 -20 -42 0 -17 -2 -29 -4 -27 -3 3 -13 70 -15 102 -1 4 -9 8 -18 8 -15 1
-14 2 2 6 16 4 13 8 -15 17 l-35 11 -2 90 c-2 119 -5 137 -20 131 -7 -3 -13 1
-13 9 0 8 6 15 13 15 10 0 13 18 13 70 -1 61 -3 69 -18 64 -15 -4 -16 -1 -7
28 13 44 20 184 10 210 -4 12 -4 42 1 67 4 25 5 60 2 78 -5 27 -9 31 -20 22
-12 -9 -14 -5 -14 26 0 29 3 35 13 27 9 -8 12 -4 13 13 1 15 -5 26 -15 28 -9
3 16 5 54 6 53 0 66 -2 52 -10z m73 1 c-8 -5 -24 -10 -35 -10 -17 0 -17 2 -5
10 8 5 24 10 35 10 17 0 17 -2 5 -10z m-420 -10 c0 -5 -7 -7 -15 -4 -8 4 -15
8 -15 10 0 2 7 4 15 4 8 0 15 -4 15 -10z m610 -21 c-7 -11 -14 -18 -17 -15 -3
3 0 12 7 21 18 21 23 19 10 -6z m40 11 c0 -5 -5 -10 -11 -10 -5 0 -7 5 -4 10
3 6 8 10 11 10 2 0 4 -4 4 -10z m-270 -4 c0 -2 -7 -7 -16 -10 -8 -3 -12 -2 -9
4 6 10 25 14 25 6z m55 -6 c-28 -12 -47 -12 -40 0 3 6 18 10 33 9 24 0 25 -1
7 -9z m-538 -42 c-3 -7 -5 -2 -5 12 0 14 2 19 5 13 2 -7 2 -19 0 -25z m255 10
c-7 -7 -12 -8 -12 -2 0 6 3 14 7 17 3 4 9 5 12 2 2 -3 -1 -11 -7 -17z m483 3
c-8 -14 -25 -14 -25 0 0 5 5 7 10 4 6 -3 10 -1 10 6 0 7 3 10 6 6 3 -3 3 -10
-1 -16z m352 -38 c-3 -10 -5 -2 -5 17 0 19 2 27 5 18 2 -10 2 -26 0 -35z
m-384 10 c4 -3 -1 -15 -10 -26 -17 -19 -17 -20 -1 -14 28 10 42 -26 17 -41
-16 -11 -18 -16 -8 -34 9 -17 9 -23 -1 -26 -9 -3 -9 -6 1 -13 11 -7 12 -12 2
-29 -7 -11 -13 -22 -13 -25 0 -4 6 -3 13 1 8 5 8 2 -2 -9 -11 -14 -11 -17 0
-17 11 0 11 -2 0 -9 -12 -8 -13 -15 -3 -35 6 -14 7 -28 3 -31 -11 -6 -22 35
-26 99 -2 26 -6 51 -9 53 -3 3 -19 -2 -37 -11 -45 -22 -49 -21 -49 18 0 25 7
40 26 55 34 27 44 26 44 -1 0 -15 -11 -29 -31 -41 -18 -10 -29 -20 -27 -23 3
-2 19 3 37 13 28 16 31 22 31 68 0 28 -4 45 -8 40 -13 -20 -69 -54 -76 -48 -4
4 3 16 16 26 19 15 19 18 4 13 -17 -6 -17 -5 -5 10 25 30 96 54 112 37z m177
-8 c0 -8 -7 -15 -16 -15 -14 0 -14 3 -4 15 7 8 14 15 16 15 2 0 4 -7 4 -15z
m-766 -40 c3 -8 -4 -21 -17 -30 -20 -14 -22 -14 -29 2 -3 10 -7 24 -7 31 -1
17 46 15 53 -3z m196 -6 c0 -5 -6 -9 -13 -9 -8 0 -14 6 -14 14 0 8 6 12 14 9
7 -3 13 -9 13 -14z m620 -1 c0 -39 -12 -98 -20 -98 -4 0 -4 18 0 40 4 22 3 43
-1 46 -15 9 -10 34 6 34 9 0 15 -9 15 -22z m74 6 c10 -27 7 -152 -6 -179 -6
-14 -18 -25 -27 -25 -14 0 -15 11 -5 107 6 60 12 109 13 111 4 8 20 0 25 -14z
m-654 -19 c0 -8 -4 -15 -10 -15 -5 0 -7 7 -4 15 4 8 8 15 10 15 2 0 4 -7 4
-15z m-90 -15 c0 -5 -5 -10 -11 -10 -5 0 -7 5 -4 10 3 6 8 10 11 10 2 0 4 -4
4 -10z m687 -81 c-3 -51 -11 -97 -18 -103 -9 -8 -10 -3 -5 24 4 19 10 65 13
103 9 100 17 81 10 -24z m-827 51 c0 -27 -3 -30 -33 -30 -26 0 -33 4 -33 19 0
11 4 17 8 15 4 -3 18 2 30 10 29 21 28 21 28 -14z m607 -2 c-3 -8 -6 -5 -6 6
-1 11 2 17 5 13 3 -3 4 -12 1 -19z m-377 -4 c0 -8 -5 -12 -10 -9 -6 4 -8 11
-5 16 9 14 15 11 15 -7z m-190 -4 c0 -5 -4 -10 -10 -10 -5 0 -10 5 -10 10 0 6
5 10 10 10 6 0 10 -4 10 -10z m-35 -40 c-3 -5 -10 -10 -16 -10 -5 0 -9 5 -9
10 0 6 7 10 16 10 8 0 12 -4 9 -10z m1910 -19 c-12 -11 -357 -102 -364 -96 -6
6 4 9 189 59 182 49 188 50 175 37z m-1379 -28 c-6 -15 -9 -15 -16 -3 -6 9 -5
17 3 22 16 10 21 2 13 -19z m-436 2 c7 -8 9 -15 6 -15 -4 0 -14 7 -22 15 -9 8
-11 15 -6 15 5 0 15 -7 22 -15z m-50 -19 c0 -3 -4 -8 -10 -11 -5 -3 -10 -1
-10 4 0 6 5 11 10 11 6 0 10 -2 10 -4z m185 -5 c3 -5 1 -12 -5 -16 -5 -3 -10
1 -10 9 0 18 6 21 15 7z m-215 -22 c0 -5 -4 -9 -10 -9 -5 0 -10 7 -10 16 0 8
5 12 10 9 6 -3 10 -10 10 -16z m520 6 c0 -8 -4 -15 -9 -15 -13 0 -22 16 -14
24 11 11 23 6 23 -9z m163 -20 c9 -19 24 -35 32 -35 11 0 14 -7 10 -25 -3 -14
-7 -36 -10 -50 -6 -30 -25 -32 -49 -6 -14 15 -17 34 -14 85 1 36 5 66 8 66 4
0 14 -16 23 -35z m-583 10 c0 -8 -5 -15 -11 -15 -5 0 -7 -4 -4 -10 3 -5 1 -10
-4 -10 -6 0 -11 5 -11 11 0 5 -6 7 -12 3 -7 -4 -4 2 6 14 22 26 36 28 36 7z
m80 1 c0 -8 -4 -18 -10 -21 -5 -3 -10 3 -10 14 0 12 5 21 10 21 6 0 10 -6 10
-14z m-30 -26 c0 -11 -4 -20 -10 -20 -5 0 -10 9 -10 20 0 11 5 20 10 20 6 0
10 -9 10 -20z m63 0 c-3 -11 -7 -20 -9 -20 -2 0 -4 9 -4 20 0 11 4 20 9 20 5
0 7 -9 4 -20z m1695 10 c-218 -17 -410 -85 -566 -202 -30 -22 -56 -38 -59 -35
-8 9 138 106 212 142 145 69 285 104 420 103 l90 -1 -97 -7z m-1877 -53 c-8
-8 -11 -7 -11 4 0 20 13 34 18 19 3 -7 -1 -17 -7 -23z m149 17 c0 -8 -5 -12
-10 -9 -6 4 -8 11 -5 16 9 14 15 11 15 -7z m303 -42 c-18 -30 -33 -25 -33 11
0 44 9 52 28 26 11 -15 12 -27 5 -37z m114 26 c-3 -8 -6 -5 -6 6 -1 11 2 17 5
13 3 -3 4 -12 1 -19z m-596 -31 c-8 -8 -11 -5 -11 9 0 27 14 41 18 19 2 -9 -1
-22 -7 -28z m206 21 c-3 -8 -6 -5 -6 6 -1 11 2 17 5 13 3 -3 4 -12 1 -19z
m-107 8 c0 -2 -7 -9 -15 -16 -13 -11 -14 -10 -9 4 5 14 24 23 24 12z m-162
-71 c0 -16 -2 -15 -8 5 -4 14 -8 34 -8 45 0 16 2 15 8 -5 4 -14 8 -34 8 -45z
m239 28 c-3 -10 -5 -4 -5 12 0 17 2 24 5 18 2 -7 2 -21 0 -30z m-136 -16 c-8
-8 -11 -3 -11 19 1 25 2 27 11 11 8 -14 8 -22 0 -30z m76 21 c-3 -8 -6 -5 -6
6 -1 11 2 17 5 13 3 -3 4 -12 1 -19z m-97 -23 c0 -16 -6 -25 -15 -25 -18 0
-20 21 -3 38 17 17 18 16 18 -13z m130 3 c0 -18 -2 -20 -9 -8 -6 8 -7 18 -5
22 9 14 14 9 14 -14z m414 -10 c8 -5 7 -11 -2 -20 -14 -14 -16 -32 -2 -23 14
9 12 -19 -2 -33 -9 -9 -9 -12 2 -12 11 -1 11 -3 -2 -11 -10 -5 -18 -17 -18
-25 0 -8 -4 -13 -9 -10 -5 3 -6 20 -4 38 3 18 6 47 7 63 5 60 7 71 13 55 3 -8
11 -18 17 -22z m-64 2 c0 -11 -6 -20 -14 -20 -8 0 -17 -6 -19 -12 -3 -7 -6 -1
-6 14 -1 23 9 35 32 37 4 1 7 -8 7 -19z m-433 -12 c-3 -8 -6 -5 -6 6 -1 11 2
17 5 13 3 -3 4 -12 1 -19z m50 -10 c-3 -8 -6 -5 -6 6 -1 11 2 17 5 13 3 -3 4
-12 1 -19z m73 2 c0 -11 -4 -20 -10 -20 -5 0 -10 9 -10 20 0 11 5 20 10 20 6
0 10 -9 10 -20z m-143 -12 c-3 -8 -6 -5 -6 6 -1 11 2 17 5 13 3 -3 4 -12 1
-19z m176 -18 c-3 -12 -8 -19 -11 -16 -5 6 5 36 12 36 2 0 2 -9 -1 -20z m-593
-131 c0 -222 -21 -339 -60 -339 -4 0 -10 73 -13 163 -4 89 -13 193 -22 232 -8
38 -15 70 -15 70 0 0 25 -2 55 -3 l55 -4 0 -119z m852 106 c0 -5 -5 -11 -11
-13 -6 -2 -11 4 -11 13 0 9 5 15 11 13 6 -2 11 -8 11 -13z m-953 -95 c20 -151
11 -478 -11 -393 -3 11 -5 35 -4 55 1 27 -2 34 -11 26 -9 -7 -11 -4 -10 11 0
11 5 19 10 18 5 -1 12 4 15 12 3 10 0 12 -14 7 -15 -6 -17 -5 -6 5 15 16 16
33 0 23 -8 -5 -9 -2 -5 9 4 10 2 17 -5 17 -6 0 -3 10 8 22 12 15 13 18 3 10
-14 -11 -17 -5 -22 50 -7 74 -21 126 -42 153 -13 18 -13 15 0 -24 27 -80 17
-115 -31 -105 -30 6 -30 7 -42 97 -6 50 -10 93 -8 95 8 7 95 -21 90 -29 -11
-19 14 -8 36 16 13 14 27 22 30 18 4 -5 12 -46 19 -93z m-184 23 c3 -32 8 -75
11 -95 4 -23 2 -38 -5 -38 -6 0 -13 23 -17 51 -4 30 -13 53 -21 56 -27 11 -32
46 -9 65 12 9 24 17 28 18 4 0 9 -26 13 -57z m815 33 c0 -3 -4 -8 -10 -11 -5
-3 -10 -1 -10 4 0 6 5 11 10 11 6 0 10 -2 10 -4z m-53 -38 c-3 -8 -6 -5 -6 6
-1 11 2 17 5 13 3 -3 4 -12 1 -19z m63 3 c0 -5 -7 -14 -15 -21 -12 -10 -15
-10 -15 2 0 8 3 18 7 21 9 10 23 9 23 -2z m-150 -14 c0 -7 -6 -22 -14 -33 -14
-18 -15 -17 -11 11 2 17 4 31 4 33 3 9 21 -1 21 -11z m524 -9 c-1 -13 -3 -38
-3 -57 -1 -19 -4 -31 -8 -28 -7 8 -6 85 3 98 8 14 11 11 8 -13z m-652 -13 c8
-14 7 -21 -8 -32 -27 -19 -37 -17 -74 22 l-34 35 53 -3 c39 -2 56 -8 63 -22z
m161 5 c3 -11 1 -18 -4 -14 -5 3 -9 12 -9 20 0 20 7 17 13 -6z m37 6 c0 -3 -4
-8 -10 -11 -5 -3 -10 -1 -10 4 0 6 5 11 10 11 6 0 10 -2 10 -4z m37 -18 c-3
-8 -6 -5 -6 6 -1 11 2 17 5 13 3 -3 4 -12 1 -19z m63 -2 c0 -14 -4 -27 -9 -30
-10 -6 -23 33 -15 46 10 16 24 7 24 -16z m-943 -58 c12 -41 18 -75 12 -78 -5
-4 0 -36 11 -76 24 -82 34 -168 18 -158 -5 4 -14 0 -19 -7 -13 -20 -11 -29 6
-29 18 0 19 -12 3 -28 -20 -20 -28 -14 -28 21 0 17 -7 60 -15 94 -8 34 -12 69
-9 77 3 8 1 23 -5 33 -9 15 -10 13 -6 -12 4 -23 3 -25 -3 -10 -5 11 -9 41 -8
67 2 33 -2 49 -12 53 -10 3 -12 0 -8 -10 11 -30 -4 -14 -24 26 -30 57 -37 40
-10 -22 26 -61 50 -139 43 -139 -3 0 -17 9 -31 21 -15 12 -35 18 -47 15 -17
-4 -23 3 -38 54 l-17 59 37 36 c20 19 41 35 47 35 6 0 25 11 41 25 17 13 32
24 35 25 4 0 16 -33 27 -72z m75 18 c2 -43 -1 -57 -14 -65 -25 -16 -25 -16
-44 42 -9 28 -19 58 -22 65 -3 8 8 12 36 12 l40 0 4 -54z m384 37 c-2 -10 -8
-43 -11 -73 -10 -83 -36 -183 -51 -200 -18 -19 -18 -1 0 36 8 16 17 54 20 84
3 38 2 46 -3 25 -7 -23 -9 -10 -10 52 -1 83 2 90 42 92 13 1 17 -4 13 -16z
m162 -44 c11 6 24 11 29 11 14 0 -110 -490 -124 -490 -9 0 -13 -16 -13 -45 0
-25 -4 -45 -10 -45 -19 0 -5 91 61 398 17 79 29 146 26 148 -5 5 -60 -214 -73
-291 -4 -22 -11 -47 -15 -55 -8 -12 -5 23 5 71 0 4 -9 15 -21 25 -17 14 -20
23 -13 34 8 13 10 12 10 -2 0 -10 5 -18 10 -18 18 0 23 29 10 60 -10 25 -9 51
5 146 l17 116 38 -37 c32 -31 41 -35 58 -26z m-119 -22 c-38 -180 -52 -225
-65 -220 -17 6 -17 6 0 69 7 29 19 91 26 138 12 81 14 85 30 71 15 -13 16 -23
9 -58z m271 43 c-6 -11 -13 -20 -16 -20 -2 0 0 9 6 20 6 11 13 20 16 20 2 0 0
-9 -6 -20z m132 -5 c3 -15 -1 -30 -13 -41 -16 -15 -17 -13 -7 25 6 23 12 41
13 41 1 0 5 -11 7 -25z m-110 -28 c3 -29 1 -33 -14 -29 -10 2 -18 8 -18 13 0
8 22 49 26 49 1 0 4 -15 6 -33z m-973 17 l32 -7 -22 -23 c-22 -24 -53 -29 -96
-18 -22 6 -22 7 10 29 38 27 36 27 76 19z m999 -19 c-3 -3 -9 2 -12 12 -6 14
-5 15 5 6 7 -7 10 -15 7 -18z m49 3 c-3 -8 -6 -5 -6 6 -1 11 2 17 5 13 3 -3 4
-12 1 -19z m64 -21 c-8 -8 -11 -7 -11 4 0 20 13 34 18 19 3 -7 -1 -17 -7 -23z
m294 13 c3 -5 1 -10 -4 -10 -6 0 -11 5 -11 10 0 6 2 10 4 10 3 0 8 -4 11 -10z
m-378 -22 c-3 -8 -6 -5 -6 6 -1 11 2 17 5 13 3 -3 4 -12 1 -19z m60 -13 c-4
-8 -14 -15 -23 -15 -16 0 -16 2 1 20 20 22 31 20 22 -5z m-768 -83 c13 -100
15 -242 4 -242 -5 1 -19 7 -32 14 -14 8 -30 13 -35 12 -6 -2 -8 -1 -3 1 15 9
-1 84 -49 234 -4 12 7 25 38 43 23 14 48 26 54 26 7 0 16 -36 23 -88z m78 75
c0 -1 4 -99 7 -217 l7 -215 -23 45 c-12 25 -28 49 -35 53 -7 5 -11 12 -9 16 6
10 -12 288 -20 315 -6 17 -3 18 32 11 22 -4 40 -8 41 -8z m-417 -16 c5 -11 10
-35 10 -53 0 -19 5 -39 11 -45 8 -8 5 -14 -10 -22 -22 -12 -29 -3 -11 15 7 7
5 17 -6 30 -8 10 -13 14 -10 7 4 -6 2 -14 -4 -18 -5 -3 -8 -18 -5 -33 l6 -27
-17 30 c-10 17 -28 54 -41 83 l-23 52 45 0 c34 0 47 -5 55 -19z m1420 -1 c0
-5 -5 -10 -11 -10 -5 0 -7 5 -4 10 3 6 8 10 11 10 2 0 4 -4 4 -10z m-421 -61
c-24 -15 -44 -10 -68 15 l-23 25 33 9 c30 7 36 5 53 -16 16 -20 17 -25 5 -33z
m-1065 -50 c-4 -7 -22 5 -46 28 l-39 38 28 5 c24 5 31 1 46 -27 10 -19 15 -38
11 -44z m939 75 c3 -3 -5 -34 -18 -68 -13 -34 -33 -109 -45 -166 -19 -89 -35
-128 -47 -116 -2 1 15 79 37 172 22 93 40 172 40 177 0 8 24 10 33 1z m57 -34
c6 -11 0 -46 -20 -106 -15 -49 -34 -117 -41 -151 -13 -61 -20 -70 -52 -57 -13
5 -12 17 4 92 10 48 30 126 46 174 28 88 38 95 63 48z m246 13 c-10 -10 -19 5
-10 18 6 11 8 11 12 0 2 -7 1 -15 -2 -18z m-1302 -34 c31 -28 53 -55 50 -60
-3 -6 0 -17 7 -25 10 -12 9 -13 -5 -8 -11 4 -16 14 -13 25 3 11 1 22 -4 25 -5
3 -9 -6 -9 -19 0 -21 -3 -23 -32 -18 -18 3 -52 17 -75 30 l-42 24 19 28 c11
15 20 32 20 38 0 23 31 9 84 -40z m723 29 c-3 -8 -6 -5 -6 6 -1 11 2 17 5 13
3 -3 4 -12 1 -19z m894 -13 c2 -16 7 -35 12 -42 4 -6 3 -14 -3 -18 -6 -3 -8
-11 -5 -16 3 -5 0 -6 -8 -3 -8 3 -20 -2 -27 -10 -7 -9 -16 -13 -21 -10 -16 10
-9 23 14 26 16 2 22 10 23 28 3 87 9 105 15 45z m-49 3 c-15 -15 -16 -32 -2
-23 15 9 12 -31 -3 -44 -17 -13 -27 -5 -27 23 0 24 29 71 38 61 3 -3 0 -11 -6
-17z m1016 -13 c178 -43 327 -150 427 -307 17 -27 17 -27 -17 -48 -40 -24
-140 -58 -190 -64 -21 -2 -42 -7 -48 -11 -14 -9 -13 1 6 33 l16 27 -25 -29
c-16 -19 -37 -30 -61 -32 -36 -4 -51 11 -22 22 8 3 17 12 20 20 4 11 0 10 -19
-3 -13 -10 -25 -24 -25 -30 0 -12 -30 -19 -30 -7 0 3 7 12 15 20 8 9 15 21 15
27 0 7 -7 4 -14 -5 -7 -10 -22 -18 -32 -19 -11 0 -13 -3 -6 -6 27 -11 10 -23
-33 -23 l-45 0 25 43 26 42 -25 -27 c-28 -32 -69 -41 -45 -11 11 13 8 13 -13
-2 -34 -25 -35 -34 -3 -27 15 2 25 0 25 -8 0 -7 -11 -10 -28 -9 -15 2 -33 0
-40 -5 -21 -13 -27 2 -9 22 20 22 23 39 4 23 -8 -6 -18 -7 -22 -3 -5 4 -6 2
-2 -3 11 -20 -11 -37 -52 -40 -22 -2 -41 0 -41 4 0 3 12 24 27 46 21 32 22 36
6 22 -12 -10 -27 -32 -33 -48 -7 -16 -16 -29 -21 -29 -14 0 -11 9 13 49 18 29
19 33 4 22 -9 -8 -24 -27 -32 -43 -8 -15 -22 -28 -30 -28 -15 0 -15 2 0 23 38
53 36 59 -6 15 -52 -56 -79 -65 -51 -17 10 17 25 38 34 48 13 14 14 19 2 29
-10 10 -13 9 -13 -5 -1 -35 -50 -75 -50 -41 0 9 -3 9 -12 0 -19 -19 -41 -15
-34 6 3 9 -7 2 -22 -15 -36 -42 -61 -44 -31 -3 13 16 20 32 17 35 -3 4 -16
-10 -28 -29 -12 -20 -28 -36 -36 -36 -17 0 -12 13 19 47 11 13 18 25 15 29 -3
3 -23 -15 -43 -40 -41 -50 -68 -63 -37 -18 32 47 35 58 5 26 -15 -18 -34 -30
-40 -27 -19 7 -16 20 6 26 12 3 20 16 23 38 l5 33 -37 -43 c-47 -54 -71 -51
-33 4 15 22 20 35 12 28 -11 -9 -20 -8 -39 7 -14 11 -29 20 -35 19 -5 0 -1 -6
9 -14 21 -16 10 -21 -13 -6 -10 6 -11 13 -2 29 10 20 13 20 46 6 19 -7 40 -14
47 -13 7 0 -5 7 -27 16 -22 9 -50 27 -61 39 -23 24 -36 22 -27 -4 3 -10 1 -13
-4 -7 -4 6 -15 12 -23 13 -8 2 -12 0 -8 -4 4 -4 -8 -28 -26 -53 -38 -52 -53
-91 -36 -91 6 0 8 5 5 10 -3 6 1 10 9 10 14 0 14 -3 4 -20 -11 -17 -10 -22 2
-30 17 -11 9 -13 -14 -4 -9 3 -16 12 -16 19 0 7 -4 15 -9 17 -17 6 30 106 69
150 l40 43 20 -24 c11 -13 20 -20 20 -17 0 4 21 -5 47 -19 27 -14 52 -25 58
-25 5 1 -14 13 -43 28 l-53 28 28 26 c34 32 63 25 44 -11 -10 -19 -9 -22 14
-31 14 -5 38 -12 53 -15 27 -6 27 -6 -3 8 -17 8 -25 16 -18 20 6 4 32 -3 58
-14 26 -11 49 -19 51 -16 2 2 -16 12 -42 22 -40 15 -44 19 -31 32 13 13 20 12
58 -8 24 -12 49 -29 55 -37 12 -16 34 -9 34 12 0 7 -7 21 -16 32 -14 18 -15
18 -4 -5 9 -17 9 -26 1 -34 -8 -8 -11 -5 -11 12 0 12 -4 20 -10 16 -11 -7 -97
35 -150 73 l-35 24 34 -29 c34 -30 34 -30 10 -36 -13 -4 -30 -1 -39 7 -24 20
-44 31 -37 19 10 -15 -17 -35 -37 -27 -9 3 -16 1 -16 -6 0 -6 5 -8 10 -5 6 3
10 1 10 -5 0 -10 -37 -5 -50 7 -7 7 56 58 123 99 89 55 218 100 342 118 55 8
239 -3 303 -19z m-1071 -17 c-3 -7 -5 -2 -5 12 0 14 2 19 5 13 2 -7 2 -19 0
-25z m-377 7 c0 -9 -12 -39 -26 -68 -15 -29 -42 -92 -60 -141 -18 -48 -35 -91
-38 -94 -16 -15 -16 12 -2 70 36 143 69 237 85 241 31 9 41 7 41 -8z m-889
-99 c-33 -33 -31 -33 -113 17 l-37 23 51 26 51 26 39 -31 39 -31 -30 -30z
m578 44 c0 -10 -3 -8 -9 5 -12 27 -12 43 0 25 5 -8 9 -22 9 -30z m326 -95
c-26 -34 -77 -133 -111 -215 -13 -30 -23 -47 -24 -37 0 10 7 31 16 48 8 17 12
40 9 52 -5 18 -4 19 5 7 10 -12 11 -11 7 8 -3 12 -2 20 3 17 9 -6 23 25 15 33
-3 3 -5 -1 -5 -8 0 -7 -2 -11 -5 -8 -5 5 36 133 54 167 12 21 12 21 35 -6 l24
-27 -23 -31z m67 68 c24 -22 23 -33 -5 -33 -13 0 -34 11 -47 25 l-23 25 28 0
c16 0 37 -7 47 -17z m338 -4 c0 -5 -4 -9 -10 -9 -5 0 -10 7 -10 16 0 8 5 12
10 9 6 -3 10 -10 10 -16z m-789 -8 l32 -19 -48 -25 c-46 -23 -50 -23 -77 -8
-28 16 -37 31 -17 31 6 0 22 9 36 20 32 25 35 25 74 1z m695 8 c3 -6 1 -16 -5
-22 -9 -9 -14 -8 -21 3 -9 15 -4 30 10 30 5 0 12 -5 16 -11z m-1401 -27 l29
-15 -28 -24 c-18 -15 -35 -22 -45 -18 -9 4 -47 13 -86 20 -47 9 -64 15 -50 20
11 3 38 14 60 24 42 20 70 18 120 -7z m91 2 c52 -31 64 -49 64 -100 0 -21 7
-75 16 -122 8 -46 14 -85 12 -87 -2 -2 -24 56 -48 130 -32 99 -51 142 -72 162
-26 25 -36 43 -22 43 3 0 25 -12 50 -26z m169 -234 c14 -102 28 -198 32 -215
6 -27 5 -29 -10 -16 -9 7 -15 16 -13 20 2 3 -3 15 -11 26 -15 19 -15 19 -9 -5
5 -18 4 -21 -2 -10 -5 8 -24 88 -41 178 -18 89 -36 175 -42 189 -8 23 -6 31
23 60 l33 34 7 -38 c4 -21 19 -121 33 -223z m1302 218 c-3 -7 -5 -2 -5 12 0
14 2 19 5 13 2 -7 2 -19 0 -25z m-818 -34 c-16 -43 -65 -287 -80 -400 -8 -61
-15 -90 -19 -75 -4 19 -8 14 -16 -27 -6 -29 -7 -52 -3 -52 4 0 10 10 12 23 l4
22 2 -22 c0 -12 -9 -29 -21 -37 -28 -20 -44 -21 -28 -1 10 12 9 28 -4 80 -18
70 -20 101 -5 70 7 -16 8 -13 4 12 -2 18 6 92 20 165 13 73 27 155 31 182 6
46 8 49 58 71 28 13 52 22 54 20 1 -1 -2 -15 -9 -31z m397 -31 l-44 -68 11
-63 c7 -46 7 -66 -2 -75 -8 -8 -11 6 -12 58 0 77 2 78 -55 -20 -32 -54 -38
-54 -19 0 7 20 6 20 -9 1 -35 -43 -1 40 62 151 44 77 49 83 79 83 l33 0 -44
-67z m175 54 c-6 -8 -9 -16 -6 -18 2 -3 -5 -5 -16 -6 -19 -2 -18 -1 3 17 27
23 35 25 19 7z m-1237 -56 c50 -112 77 -208 91 -323 6 -52 5 -58 -12 -58 -15
0 -26 21 -52 101 -18 56 -54 143 -80 193 l-46 92 30 26 c17 15 33 28 36 28 4
0 18 -26 33 -59z m525 40 l28 -20 -17 -93 c-9 -51 -22 -109 -28 -128 -6 -19
-13 -57 -15 -84 -2 -33 -8 -51 -17 -54 -10 -2 -11 -1 -3 5 8 6 9 22 3 53 -5
25 -4 97 1 160 5 63 9 130 9 148 0 37 3 38 39 13z m738 -13 c-3 -7 -5 -2 -5
12 0 14 2 19 5 13 2 -7 2 -19 0 -25z m53 12 c0 -5 -7 -10 -15 -10 -8 0 -15 5
-15 10 0 6 7 10 15 10 8 0 15 -4 15 -10z m161 -23 c-8 -8 -11 -7 -11 4 0 20
13 34 18 19 3 -7 -1 -17 -7 -23z m-1627 2 c36 -10 40 -15 86 -112 54 -115 96
-234 86 -244 -3 -3 -6 0 -6 8 0 8 -13 40 -28 71 -22 46 -30 56 -42 48 -13 -8
-12 -10 3 -10 29 0 19 -15 -10 -15 -16 0 -33 6 -40 15 -22 27 -14 0 14 -48 15
-25 22 -43 16 -39 -5 3 -38 57 -73 119 -34 62 -80 139 -101 172 l-40 58 48 -6
c26 -4 65 -12 87 -17z m607 -129 c-9 -44 -10 -43 -9 24 1 47 -3 71 -11 74 -8
3 -6 8 6 17 17 12 18 10 21 -28 1 -23 -2 -62 -7 -87z m775 116 c10 4 17 5 14
3 -48 -40 -45 -39 -47 -12 0 15 2 21 6 14 5 -7 16 -9 27 -5z m189 -16 c0 -7
-6 -15 -12 -17 -8 -3 -13 4 -13 17 0 13 5 20 13 18 6 -3 12 -11 12 -18z m440
11 c-16 -14 -55 -23 -55 -13 0 12 17 20 45 21 11 1 15 -3 10 -8z m-1516 -36
c2 -3 -8 -16 -23 -30 l-26 -24 -47 20 c-49 21 -49 22 -6 49 25 16 32 16 62 3
19 -7 37 -16 40 -18z m1003 13 c-7 -7 -12 -8 -12 -2 0 6 3 14 7 17 3 4 9 5 12
2 2 -3 -1 -11 -7 -17z m138 13 c0 -6 -4 -13 -10 -16 -5 -3 -10 1 -10 9 0 9 5
16 10 16 6 0 10 -4 10 -9z m-215 -61 c0 -44 -19 -67 -28 -33 -3 12 -5 10 -6
-8 -1 -31 -51 -62 -51 -32 0 9 12 30 28 47 l27 30 -26 -17 c-26 -15 -27 -15
-22 4 6 23 52 61 67 56 6 -2 11 -23 11 -47z m103 18 c-6 -18 -28 -21 -28 -4 0
9 7 16 16 16 9 0 14 -5 12 -12z m99 -50 c-2 -13 -4 -3 -4 22 0 25 2 35 4 23 2
-13 2 -33 0 -45z m-1080 -44 c29 -96 63 -288 63 -354 0 -43 -2 -48 -19 -43
-15 4 -21 17 -26 56 -12 90 -46 239 -72 315 -24 70 -24 74 -7 93 10 11 22 18
27 16 6 -2 21 -39 34 -83z m-129 57 c31 -16 41 -28 54 -71 9 -28 14 -58 11
-66 -3 -8 0 -14 7 -14 6 0 9 -4 6 -9 -3 -5 5 -50 18 -100 13 -50 19 -88 13
-84 -6 4 -7 -7 -3 -31 3 -20 9 -52 12 -71 5 -30 4 -34 -10 -29 -11 4 -15 13
-10 26 3 10 1 25 -5 32 -6 7 -18 44 -27 82 -18 78 -74 235 -110 307 -28 54
-19 60 44 28z m1392 9 c0 -5 -5 -10 -11 -10 -5 0 -7 5 -4 10 3 6 8 10 11 10 2
0 4 -4 4 -10z m-817 -36 c35 -8 34 -15 -3 -37 -30 -18 -30 -18 -66 9 -32 25
-34 29 -18 36 11 4 28 5 39 2 11 -2 32 -7 48 -10z m562 0 c-19 -16 -19 -16 5
-9 23 7 24 6 11 -9 -13 -16 -16 -16 -30 -1 -14 14 -14 17 -1 25 25 16 37 11
15 -6z m42 -6 c-3 -8 -6 -5 -6 6 -1 11 2 17 5 13 3 -3 4 -12 1 -19z m209 11
c3 -6 1 -16 -5 -22 -9 -9 -11 -8 -5 6 5 13 2 16 -12 10 -12 -4 -15 -3 -10 5 9
15 23 15 32 1z m-1416 -81 c21 -46 41 -99 45 -118 7 -33 6 -34 -8 -15 -13 16
-18 18 -29 7 -11 -11 -10 -12 3 -7 12 5 16 0 14 -22 -1 -15 3 -32 9 -36 7 -6
5 -7 -5 -4 -13 4 -15 1 -12 -14 5 -16 8 -17 22 -7 12 9 11 7 -2 -8 -15 -16
-19 -17 -27 -4 -14 21 -12 50 3 50 6 0 4 5 -5 11 -19 11 -25 49 -7 49 5 0 7 4
4 10 -3 6 1 7 12 4 14 -4 14 -3 -2 7 -11 6 -21 13 -22 14 -1 0 -10 30 -18 66
-9 35 -19 72 -21 82 -13 43 11 10 46 -65z m414 1 c-8 -41 -23 -120 -33 -177
-19 -103 -38 -157 -25 -72 30 209 59 338 71 326 2 -1 -4 -36 -13 -77z m122 19
c19 -20 20 -28 10 -65 -10 -36 -13 -40 -27 -30 -9 7 -19 21 -22 32 -5 22 -8
-3 -11 -82 -1 -29 -5 -43 -15 -43 -9 0 -11 7 -7 23 4 12 9 63 13 114 6 100 11
104 59 51z m840 15 c-10 -10 -19 5 -10 18 6 11 8 11 12 0 2 -7 1 -15 -2 -18z
m69 17 c-3 -5 -11 -10 -16 -10 -6 0 -7 5 -4 10 3 6 11 10 16 10 6 0 7 -4 4
-10z m69 -9 c-5 -3 -14 -15 -20 -25 -11 -21 -34 -34 -34 -19 0 15 45 61 53 56
5 -3 5 -8 1 -12z m1304 -39 c-2 -9 -22 -14 -63 -16 -55 -2 -113 -21 -102 -33
3 -2 22 0 44 6 40 12 96 14 105 6 9 -10 -39 -128 -57 -142 -44 -31 -132 -2
-184 60 -21 26 -31 20 -31 -17 0 -37 -10 -48 -55 -64 -16 -6 -25 -11 -18 -11
6 -1 23 3 37 9 32 12 36 -8 6 -35 -23 -21 -64 -14 -97 17 -30 28 -29 38 5 38
35 0 93 35 99 61 3 12 29 32 63 49 31 16 70 40 86 53 16 13 39 27 50 31 12 4
29 15 39 26 17 19 18 19 46 -3 16 -12 28 -27 27 -35z m-1897 15 c-13 -12 -20
-15 -16 -7 14 26 28 41 33 35 3 -3 -5 -16 -17 -28z m119 19 c0 -8 -4 -17 -9
-20 -10 -7 -23 19 -14 28 11 11 23 6 23 -8z m89 5 c8 -5 11 -16 8 -25 -8 -21
-43 -21 -51 0 -11 30 13 44 43 25z m131 -17 c0 -8 -5 -12 -10 -9 -6 4 -8 11
-5 16 9 14 15 11 15 -7z m151 2 c5 3 9 0 9 -6 0 -15 -23 -7 -26 8 -1 7 0 8 3
2 2 -5 9 -8 14 -4z m166 -8 c-3 -8 -6 -5 -6 6 -1 11 2 17 5 13 3 -3 4 -12 1
-19z m-950 -10 c-3 -13 -9 -48 -12 -79 -6 -52 -10 -58 -42 -73 -33 -15 -34
-15 -29 1 2 10 7 43 11 73 5 43 12 60 33 77 34 29 46 29 39 1z m377 -20 c-3
-4 -13 -12 -24 -18 -22 -12 -22 8 0 34 10 13 15 14 21 4 4 -6 5 -16 3 -20z
m294 -42 c2 -9 -2 -16 -8 -16 -17 0 -60 47 -60 66 0 14 5 12 33 -8 17 -14 33
-33 35 -42z m-262 17 c-11 -11 -19 6 -11 24 8 17 8 17 12 0 3 -10 2 -21 -1
-24z m364 31 c0 -8 -19 -13 -24 -6 -3 5 1 9 9 9 8 0 15 -2 15 -3z m30 -8 c0
-3 -4 -8 -10 -11 -5 -3 -10 -1 -10 4 0 6 5 11 10 11 6 0 10 -2 10 -4z m30 -16
c0 -5 -7 -10 -16 -10 -8 0 -12 5 -9 10 3 6 10 10 16 10 5 0 9 -4 9 -10z m50
-11 c0 -5 -9 -9 -20 -9 -19 0 -26 11 -14 23 8 8 34 -3 34 -14z m245 11 c-3 -5
-13 -10 -21 -10 -8 0 -14 5 -14 10 0 6 9 10 21 10 11 0 17 -4 14 -10z m45 0
c0 -5 -7 -10 -15 -10 -8 0 -15 5 -15 10 0 6 7 10 15 10 8 0 15 -4 15 -10z
m-1341 -37 c-1 -24 -3 -29 -6 -15 -2 12 -8 22 -13 22 -5 0 -7 7 -4 15 11 28
24 15 23 -22z m532 -6 c-29 -30 -39 -12 -10 19 14 15 25 20 27 14 3 -7 -5 -21
-17 -33z m574 33 c-3 -5 -15 -10 -26 -10 -11 0 -17 5 -14 10 3 6 15 10 26 10
11 0 17 -4 14 -10z m-628 -22 c-3 -8 -6 -5 -6 6 -1 11 2 17 5 13 3 -3 4 -12 1
-19z m-1210 -36 c-25 -5 -41 12 -33 34 6 16 9 15 30 -7 22 -23 22 -24 3 -27z
m1318 23 c-2 -33 -15 -45 -15 -13 0 20 7 38 14 38 1 0 1 -11 1 -25z m234 -5
c11 0 22 -9 26 -20 4 -11 17 -28 31 -36 l24 -16 -30 -38 -30 -38 -42 15 c-55
19 -78 32 -78 44 0 6 7 6 19 -1 23 -12 91 -14 91 -2 0 5 -16 9 -35 10 -50 2
-55 7 -44 44 5 17 7 34 4 36 -3 3 -8 -9 -11 -27 -4 -17 -11 -34 -15 -37 -12
-7 -11 27 2 64 11 31 11 31 39 17 16 -8 38 -15 49 -15z m361 18 c0 -4 -7 -8
-15 -8 -8 0 -15 4 -15 8 0 5 7 9 15 9 8 0 15 -4 15 -9z m40 2 c0 -5 -4 -10
-10 -10 -5 0 -10 5 -10 10 0 6 5 10 10 10 6 0 10 -4 10 -10z m47 4 c-3 -3 -12
-4 -19 -1 -8 3 -5 6 6 6 11 1 17 -2 13 -5z m56 -1 c-7 -2 -19 -2 -25 0 -7 3
-2 5 12 5 14 0 19 -2 13 -5z m1047 -12 c0 -10 -9 -29 -20 -42 l-19 -24 9 32
c14 52 30 70 30 34z m-2160 1 c0 -5 -6 -17 -14 -27 -13 -18 -14 -18 -9 8 5 24
23 39 23 19z m1670 -11 c-8 -6 -37 -13 -65 -16 -27 -4 -58 -9 -67 -11 -13 -4
-16 -1 -12 10 4 11 24 16 72 19 37 2 72 4 77 5 6 1 3 -2 -5 -7z m-1330 -26 c0
-14 -4 -25 -8 -25 -7 0 -8 31 -3 48 4 11 11 -3 11 -23z m763 8 c-7 -2 -19 -2
-25 0 -7 3 -2 5 12 5 14 0 19 -2 13 -5z m267 -3 c0 -5 -4 -10 -9 -10 -6 0 -13
5 -16 10 -3 6 1 10 9 10 9 0 16 -4 16 -10z m120 0 c0 -5 -21 -10 -47 -10 -35
0 -44 3 -33 10 20 13 80 13 80 0z m-2415 -20 c11 -18 14 -70 3 -70 -5 0 -8 7
-4 15 3 9 -3 24 -14 35 -11 11 -20 22 -20 25 0 9 29 5 35 -5z m1411 -17 c-10
-10 -19 5 -10 18 6 11 8 11 12 0 2 -7 1 -15 -2 -18z m1334 22 c0 -11 -54 -38
-90 -45 -60 -11 -48 2 23 26 34 12 63 22 65 23 1 0 2 -1 2 -4z m-2045 -15 c-3
-5 -12 -10 -18 -10 -7 0 -6 4 3 10 19 12 23 12 15 0z m605 -14 c0 -8 -4 -18
-10 -21 -5 -3 -10 3 -10 14 0 12 5 21 10 21 6 0 10 -6 10 -14z m56 -13 c-10
-10 -19 5 -10 18 6 11 8 11 12 0 2 -7 1 -15 -2 -18z m-126 13 c0 -3 -4 -8 -10
-11 -5 -3 -10 -1 -10 4 0 6 5 11 10 11 6 0 10 -2 10 -4z m630 -42 c0 -31 -2
-34 -30 -34 -36 0 -36 3 -9 46 25 40 39 36 39 -12z m974 -19 c-22 -7 -39 -11
-40 -11 -1 1 1 18 3 38 l5 37 35 -26 35 -27 -38 -11z m-1564 41 c0 -23 -16
-27 -17 -5 -1 10 2 19 8 19 5 0 9 -6 9 -14z m920 0 c6 -8 20 -16 31 -18 11 -2
21 -7 22 -13 3 -17 -86 -17 -126 0 -42 17 -48 24 -14 18 12 -2 31 3 42 11 25
19 30 19 45 2z m142 -3 c29 -26 21 -38 -27 -40 -47 -2 -49 2 -17 40 19 21 21
21 44 0z m-2186 -30 c-11 -11 -19 6 -11 24 8 17 8 17 12 0 3 -10 2 -21 -1 -24z
m544 21 c0 -2 -7 -4 -15 -4 -8 0 -15 4 -15 10 0 5 7 7 15 4 8 -4 15 -8 15 -10z
m-197 -14 c3 -11 1 -20 -4 -20 -5 0 -9 9 -9 20 0 11 2 20 4 20 2 0 6 -9 9 -20z
m1179 -5 c16 -36 68 -58 107 -44 24 9 35 8 48 -2 11 -10 14 -10 9 -2 -5 9 -2
11 8 7 9 -3 13 -11 9 -17 -4 -6 0 -8 10 -4 9 3 19 2 22 -3 15 -24 74 -10 125
29 29 22 59 37 66 34 21 -8 17 -25 -4 -19 -12 4 -25 -2 -38 -16 -14 -16 -14
-19 -2 -10 9 7 31 15 48 17 29 4 30 3 18 -12 -8 -10 -8 -14 -1 -10 7 4 23 -4
38 -18 27 -28 53 -27 86 1 9 8 18 11 21 8 3 -3 9 0 14 7 5 8 3 10 -7 4 -12 -8
-12 -6 0 8 15 18 26 23 16 7 -9 -15 7 -12 29 5 23 17 36 19 36 5 0 -5 -6 -10
-14 -10 -8 0 -18 -4 -21 -10 -7 -11 23 -2 43 13 9 7 19 4 35 -12 27 -25 56
-26 112 -6 58 21 143 18 185 -6 l35 -20 -78 6 c-163 12 -441 -43 -655 -127
l-111 -44 -60 66 c-34 37 -78 75 -98 84 -21 10 -55 27 -76 37 -21 10 -45 15
-54 12 -11 -5 -7 6 11 30 34 45 71 50 88 12z m931 3 l32 -23 -70 -6 c-38 -3
-72 -3 -75 -1 -8 6 50 52 67 52 8 0 29 -10 46 -22z m-2408 2 c3 -5 1 -10 -4
-10 -6 0 -11 5 -11 10 0 6 2 10 4 10 3 0 8 -4 11 -10z m1033 -7 c-2 -9 -13
-17 -26 -18 -21 -2 -21 -1 -5 17 20 23 35 23 31 1z m69 -15 c-3 -7 -5 -2 -5
12 0 14 2 19 5 13 2 -7 2 -19 0 -25z m470 22 c13 0 13 -3 3 -15 -15 -18 -51
-20 -68 -3 -21 21 -13 31 19 24 17 -3 38 -6 46 -6z m712 -12 c-27 -50 -68 -62
-93 -26 -21 30 -20 41 3 28 11 -5 35 -10 53 -9 l33 1 -30 13 -30 14 38 1 c36
0 37 -1 26 -22z m-1109 -2 c0 -8 -4 -18 -10 -21 -5 -3 -10 3 -10 14 0 12 5 21
10 21 6 0 10 -6 10 -14z m627 -2 c-3 -3 -12 -4 -19 -1 -8 3 -5 6 6 6 11 1 17
-2 13 -5z m-1962 -22 c22 -18 23 -20 7 -37 -16 -17 -16 -17 11 0 33 21 35 10
5 -24 l-23 -26 27 24 c16 14 31 21 35 17 5 -4 -7 -21 -26 -37 -19 -16 -36 -28
-37 -26 -5 5 -31 127 -27 127 3 0 15 -8 28 -18z m1415 8 c0 -5 -4 -10 -10 -10
-5 0 -10 5 -10 10 0 6 5 10 10 10 6 0 10 -4 10 -10z m515 0 c17 -7 17 -9 3 -9
-10 -1 -18 -5 -18 -11 0 -14 -47 -13 -56 2 -5 8 -2 9 9 5 10 -3 17 -2 17 3 0
5 -8 11 -17 13 -10 3 -4 5 12 5 17 0 39 -3 50 -8z m982 -38 c18 -24 33 -47 33
-51 0 -4 -30 0 -68 10 -37 9 -99 20 -137 25 -39 4 -61 10 -50 12 11 2 26 9 34
16 22 18 83 35 121 33 28 -2 40 -10 67 -45z m-1467 28 c0 -5 -5 -10 -11 -10
-5 0 -7 5 -4 10 3 6 8 10 11 10 2 0 4 -4 4 -10z m712 0 c41 0 41 0 23 -20 -24
-27 -63 -22 -84 10 -15 23 -15 24 2 17 10 -4 37 -7 59 -7z m-1880 -17 c4 -13
-2 -18 -19 -19 -12 -1 -23 2 -23 8 0 5 5 6 10 3 6 -3 13 1 16 9 8 20 11 20 16
-1z m1222 -9 c26 -10 18 -24 -14 -24 -20 0 -30 5 -30 15 0 16 17 19 44 9z
m-700 -45 c-1 -19 -17 -95 -37 -169 -19 -74 -41 -171 -47 -216 -7 -44 -15 -85
-18 -91 -16 -23 -89 -63 -115 -63 -15 0 -42 7 -59 16 -17 9 -27 11 -23 4 4 -6
17 -15 29 -20 16 -7 17 -9 4 -9 -17 -1 -21 3 -56 46 -9 13 -35 33 -58 45 -48
27 -179 117 -211 146 -13 10 -23 24 -23 30 0 6 -7 9 -15 6 -29 -11 -15 12 27
44 23 18 38 32 34 32 -5 0 -26 -14 -47 -31 -25 -20 -46 -29 -56 -25 -14 6 -9
15 28 53 l44 47 -44 -37 c-74 -61 -71 -41 4 30 53 50 57 55 17 22 -96 -79
-102 -82 -102 -66 0 9 26 39 58 67 32 30 40 40 17 22 -22 -16 -51 -42 -64 -56
-19 -21 -27 -23 -38 -14 -12 10 -4 22 49 71 l63 59 -68 -57 c-37 -32 -70 -56
-72 -53 -2 2 -7 29 -9 60 -5 52 -3 57 29 88 26 25 38 30 56 25 22 -7 21 -10
-31 -56 -30 -27 -50 -49 -45 -49 6 0 29 18 50 40 21 22 44 40 51 40 6 0 29
-13 50 -28 21 -16 51 -36 66 -46 l28 -18 -6 31 c-10 47 17 31 46 -27 23 -45
46 -71 64 -72 4 0 6 8 3 18 -13 46 -13 46 20 44 17 -2 34 1 38 7 3 6 16 11 27
11 25 0 108 47 108 60 0 6 11 10 23 10 27 0 121 31 163 54 39 21 49 15 48 -25z
m646 31 c0 -5 -4 -10 -10 -10 -5 0 -10 5 -10 10 0 6 5 10 10 10 6 0 10 -4 10
-10z m-1165 -33 c4 5 5 2 1 -4 -4 -7 -2 -13 3 -13 6 0 11 6 12 13 0 6 5 1 10
-12 5 -13 7 -26 5 -28 -7 -7 -52 29 -66 52 -12 19 -12 19 7 2 11 -9 23 -14 28
-10z m-64 -4 c13 -16 12 -17 -3 -4 -10 7 -18 15 -18 17 0 8 8 3 21 -13z m1312
-10 c4 -2 7 -20 7 -40 0 -24 8 -45 21 -59 l22 -23 -31 -30 c-56 -56 -123 -32
-107 39 5 22 1 32 -17 45 -22 16 -22 17 35 13 55 -4 74 3 41 16 -25 10 -71 7
-99 -6 -20 -9 -28 -9 -37 0 -37 37 110 77 165 45z m1500 0 c-7 -2 -13 -15 -13
-27 0 -31 -37 -63 -83 -71 l-38 -7 7 38 c9 52 12 57 40 51 16 -3 24 0 24 9 0
10 12 14 38 13 20 0 31 -3 25 -6z m-525 -15 c-2 -8 8 -13 22 -14 61 -3 70 -5
70 -14 0 -6 -30 -11 -67 -12 l-68 -1 55 -6 55 -6 -40 -8 c-41 -7 -264 -8 -277
0 -4 2 -2 10 4 17 9 9 31 12 74 8 75 -6 157 5 148 20 -4 6 0 14 7 19 18 11 19
11 17 -3z m237 -18 c3 -5 -3 -10 -15 -10 -12 0 -18 5 -15 10 3 6 10 10 15 10
5 0 12 -4 15 -10z m-1120 -29 c-3 -6 -11 -11 -17 -11 -6 0 -6 6 2 15 14 17 26
13 15 -4z m1185 -11 c0 -5 -4 -10 -10 -10 -5 0 -10 5 -10 10 0 6 5 10 10 10 6
0 10 -4 10 -10z m-142 -10 c46 0 31 -16 -24 -25 -26 -4 -44 -2 -49 4 -9 16 5
33 22 27 8 -3 31 -6 51 -6z m-620 -12 c-6 -18 -28 -21 -28 -4 0 9 7 16 16 16
9 0 14 -5 12 -12z m527 2 c3 -5 0 -7 -7 -5 -8 3 -22 -1 -33 -9 -13 -10 -27
-11 -49 -5 -19 6 -63 5 -114 -2 -46 -6 -94 -9 -108 -6 -13 2 -24 1 -24 -2 0
-3 -19 -7 -43 -8 l-42 -3 28 16 c21 11 71 17 195 21 92 3 169 7 171 9 8 7 20
4 26 -6z m-921 -26 c21 -20 20 -28 -1 -20 -16 5 -16 5 -2 -6 21 -17 21 -51 0
-42 -9 4 -34 6 -55 5 -43 -2 -43 -1 8 57 23 26 30 27 50 6z m96 7 c0 -5 -7
-11 -15 -15 -15 -5 -20 5 -8 17 9 10 23 9 23 -2z m374 3 c9 -3 16 -12 16 -20
0 -11 -10 -13 -42 -8 -51 8 -57 12 -38 24 17 11 42 13 64 4z m740 -2 c6 -10
-63 -37 -71 -28 -3 3 0 12 7 21 13 16 55 21 64 7z m-284 -12 c10 -5 22 -22 28
-38 9 -27 9 -28 -22 -28 -17 0 -41 -3 -53 -7 -21 -8 -21 -6 -13 23 9 30 27 60
37 60 2 0 13 -4 23 -10z m-1576 -69 c-5 -6 -84 31 -84 39 0 4 20 -2 44 -14 24
-12 42 -23 40 -25z m963 37 c6 -7 15 -27 21 -44 l10 -32 -57 5 c-36 3 -66 1
-80 -7 -38 -20 -34 -6 12 43 43 47 76 59 94 35z m363 3 c0 -5 9 -7 20 -4 11 3
20 0 20 -6 0 -15 -58 -10 -72 6 -8 10 -5 13 11 13 11 0 21 -4 21 -9z m170 -1
c0 -5 -11 -10 -24 -10 -13 0 -33 -3 -43 -6 -16 -5 -16 -4 1 10 22 18 66 22 66
6z m-225 -8 c6 -4 18 -19 28 -34 l17 -28 -45 0 c-26 0 -56 -5 -67 -11 -18 -10
-20 -9 -15 6 4 9 7 21 7 26 0 13 38 49 53 49 6 0 17 -4 22 -8z m130 -2 c-3 -5
-11 -10 -16 -10 -6 0 -7 5 -4 10 3 6 11 10 16 10 6 0 7 -4 4 -10z m320 -3 c41
13 43 8 13 -24 -32 -35 -83 -32 -102 6 l-15 29 34 -11 c25 -7 45 -7 70 0z m80
-34 c-18 -97 -77 -150 -200 -179 -75 -17 -382 -33 -497 -26 -59 4 -72 8 -105
38 -21 18 -32 33 -25 34 6 0 12 -5 12 -11 0 -8 5 -7 15 1 9 7 19 10 22 6 4 -4
1 -11 -7 -16 -8 -6 -10 -10 -5 -10 6 0 22 11 37 25 30 28 44 31 52 13 5 -10 7
-10 12 0 8 18 35 15 27 -3 -4 -11 -16 -15 -36 -13 -16 2 -32 -1 -34 -7 -3 -9
19 -11 72 -6 8 0 14 5 13 9 -5 16 47 67 70 69 19 2 21 -1 12 -12 -7 -8 -16
-12 -21 -9 -5 3 -8 0 -7 -7 2 -7 -8 -16 -22 -20 -14 -4 -19 -7 -11 -8 11 -1
11 -4 0 -18 -12 -14 -9 -14 20 3 25 14 35 16 38 7 3 -9 30 -13 86 -13 77 0 82
2 103 28 12 15 26 23 31 19 4 -5 -1 -15 -11 -23 -12 -9 -15 -14 -7 -14 8 0 19
8 26 17 17 23 45 26 38 5 -5 -13 0 -11 19 6 13 12 33 22 44 22 10 0 15 -4 9
-8 -5 -4 -16 -16 -24 -27 -8 -11 11 6 42 38 30 31 60 57 67 57 12 0 9 -7 -28
-60 -17 -23 -10 -19 21 15 49 54 73 56 37 3 -24 -37 -31 -44 62 65 49 57 63
60 53 10z m-1790 -21 c19 -13 19 -14 -5 -7 -23 5 -23 5 -7 -8 22 -19 22 -27
-3 -27 -11 0 -20 -5 -20 -12 0 -6 -3 -8 -6 -5 -4 4 -1 14 6 22 12 14 10 15
-12 10 -29 -7 -48 15 -48 54 0 20 1 20 38 4 20 -10 46 -24 57 -31z m765 38 c0
-5 -5 -10 -11 -10 -5 0 -7 5 -4 10 3 6 8 10 11 10 2 0 4 -4 4 -10z m-584 -13
c4 -4 -7 -7 -25 -7 -18 0 -30 4 -27 8 6 10 42 9 52 -1z m294 -7 c-20 -13 -33
-13 -25 0 3 6 14 10 23 10 15 0 15 -2 2 -10z m90 -23 c0 -30 -61 -51 -88 -31
-12 9 -13 13 -3 14 7 0 11 6 8 14 -7 17 5 22 51 24 27 1 32 -2 32 -21z m40 13
c0 -5 -4 -10 -10 -10 -5 0 -10 5 -10 10 0 6 5 10 10 10 6 0 10 -4 10 -10z
m864 -14 c-7 -18 -54 -46 -78 -46 -8 0 -27 11 -42 24 l-28 23 51 -4 c37 -4 58
-1 74 11 26 18 32 16 23 -8z m66 9 c-7 -9 -15 -13 -19 -10 -3 3 1 10 9 15 21
14 24 12 10 -5z m50 6 c0 -6 -4 -13 -10 -16 -5 -3 -10 1 -10 9 0 9 5 16 10 16
6 0 10 -4 10 -9z m-1287 -12 c73 -1 85 -4 76 -15 -6 -8 -28 -13 -48 -13 l-36
2 35 7 c27 6 15 8 -47 9 -68 1 -83 -2 -83 -14 0 -12 16 -15 83 -16 101 -1 64
-17 -47 -20 -39 -1 -74 -7 -78 -13 -8 -11 -12 13 -9 47 2 12 -5 17 -23 17 -14
0 -26 4 -26 9 0 6 26 8 58 6 31 -2 96 -5 145 -6z m501 -37 c39 -20 91 -53 116
-71 25 -19 79 -61 121 -92 42 -32 95 -79 118 -105 60 -68 221 -406 221 -463 0
-6 -16 -3 -36 5 -28 12 -43 13 -66 5 -17 -6 -35 -8 -40 -5 -5 3 -20 -4 -34
-17 -13 -12 -27 -19 -31 -15 -4 3 2 13 13 21 13 8 20 23 18 37 -1 13 -3 29 -3
36 -1 7 -6 10 -11 7 -6 -3 -13 1 -16 9 -3 9 -12 16 -20 16 -17 0 -18 12 -3 27
6 6 8 21 4 33 -4 13 -10 19 -14 14 -12 -17 -31 -14 -24 3 4 10 2 14 -5 10 -11
-8 -42 45 -42 73 0 9 -11 31 -25 50 -13 18 -22 37 -18 42 3 6 -5 5 -17 -2 -14
-8 -20 -8 -16 -1 4 6 -2 18 -13 28 -11 9 -18 20 -15 25 3 4 -2 5 -11 2 -8 -4
-22 -1 -30 6 -8 6 -19 9 -24 5 -7 -4 -8 1 -4 11 5 14 3 16 -11 11 -10 -4 -15
-3 -11 3 3 6 1 10 -5 10 -6 0 -8 5 -4 12 6 9 9 9 12 0 2 -7 8 -12 14 -12 7 0
6 5 -2 14 -6 8 -17 13 -24 10 -8 -3 -17 10 -24 35 -13 42 -71 101 -100 101
-12 0 -13 3 -5 8 9 5 6 11 -9 21 -18 11 -20 11 -15 -3 4 -9 3 -16 -1 -16 -17
1 -30 17 -33 40 -2 14 -11 26 -19 26 -8 1 -18 3 -22 4 -5 1 -13 3 -18 4 -19 2
-29 29 -19 49 26 48 99 44 203 -11z m354 17 c-6 -16 -21 -37 -34 -46 -20 -13
-29 -13 -54 -3 -17 7 -35 21 -41 32 -9 17 -8 18 10 9 32 -18 68 -13 98 14 15
13 29 25 30 25 1 0 -3 -14 -9 -31z m467 21 c-3 -5 -10 -10 -16 -10 -5 0 -9 5
-9 10 0 6 7 10 16 10 8 0 12 -4 9 -10z m-115 -10 c0 -5 -5 -10 -11 -10 -5 0
-7 5 -4 10 3 6 8 10 11 10 2 0 4 -4 4 -10z m-610 -12 c0 -4 -12 -8 -27 -8 -19
0 -24 3 -15 8 17 11 42 11 42 0z m398 2 c7 0 11 -4 8 -8 -2 -4 -23 -6 -46 -4
-30 3 -38 7 -29 13 8 5 23 7 34 4 11 -2 26 -5 33 -5z m-368 -4 c0 -3 -4 -8
-10 -11 -5 -3 -10 -1 -10 4 0 6 5 11 10 11 6 0 10 -2 10 -4z m60 -16 c44 -23
46 -26 27 -45 -15 -15 -90 -18 -81 -4 3 6 13 9 22 8 33 -3 42 1 41 19 0 10 -3
12 -6 5 -2 -7 -12 -13 -20 -13 -13 0 -13 3 -3 15 10 13 9 15 -9 15 -11 0 -21
5 -21 10 0 14 5 13 50 -10z m610 11 c0 -12 -23 -31 -37 -31 -8 0 -10 7 -6 17
6 14 2 13 -21 -5 -16 -12 -33 -22 -39 -22 -14 0 14 31 35 39 24 9 68 10 68 2z
m-260 -19 c0 -4 -9 -8 -19 -8 -15 0 -17 3 -9 13 10 12 28 9 28 -5z m-745 -41
c27 -38 47 -54 83 -66 26 -10 59 -22 74 -27 38 -14 55 -36 78 -102 28 -83 53
-112 125 -146 79 -38 105 -68 105 -125 0 -35 7 -52 40 -91 26 -31 40 -59 40
-77 0 -30 -2 -30 -52 6 -22 16 -36 19 -75 13 -26 -3 -54 -12 -61 -20 -15 -15
-19 -52 -8 -77 5 -12 -6 -18 -59 -28 -43 -9 -69 -10 -78 -3 -6 5 -29 15 -49
21 -46 15 -89 -4 -108 -48 -25 -63 -71 -77 -89 -29 -26 70 -26 68 25 68 69 0
51 6 -39 14 -78 6 -79 6 -105 -24 -34 -39 -69 -40 -83 -3 -22 59 -62 78 -112
52 -12 -7 -45 -34 -74 -60 -38 -36 -60 -49 -82 -49 -30 0 -71 32 -71 55 0 6
-9 27 -19 48 l-19 37 34 0 c49 0 110 27 130 58 10 15 21 45 24 67 5 39 6 40
43 37 52 -5 87 19 87 60 0 30 1 31 20 13 13 -12 31 -16 60 -13 22 2 40 -1 40
-6 0 -21 35 -46 65 -46 63 0 105 68 71 115 -12 17 -11 21 10 38 37 29 33 77
-11 116 -30 26 -32 31 -16 31 32 0 69 21 74 42 5 16 11 19 35 14 41 -10 62 16
37 44 -10 11 -23 20 -28 20 -6 0 -3 -8 6 -18 25 -27 21 -32 -21 -32 -26 0 -54
-11 -90 -34 -32 -21 -61 -32 -73 -29 -28 8 -24 47 7 72 15 12 21 21 14 21 -6
0 -20 -10 -30 -22 -23 -29 -33 -21 -17 12 7 14 29 33 51 44 33 16 43 17 78 7
71 -22 74 -22 33 -1 -48 23 -86 25 -124 6 -28 -15 -68 -64 -63 -78 1 -5 -3 -8
-9 -8 -6 0 -9 -7 -5 -15 6 -17 -28 -39 -47 -29 -9 5 -9 4 0 -6 9 -10 18 -11
35 -3 24 10 48 7 48 -6 0 -4 -18 -13 -39 -20 -48 -14 -97 -61 -110 -104 -7
-25 -9 -27 -10 -9 -1 12 -5 22 -10 22 -12 0 -22 -44 -11 -48 6 -2 10 -10 10
-18 0 -8 5 -14 10 -14 6 0 10 -4 10 -9 0 -6 -12 -6 -31 1 -33 11 -125 6 -139
-8 -5 -5 -12 -21 -15 -35 -5 -20 -1 -32 16 -48 15 -14 18 -21 9 -21 -8 0 -26
-11 -40 -25 -30 -29 -51 -26 -75 11 -21 32 -41 30 -60 -6 -18 -34 -43 -38 -80
-14 -27 18 -55 13 -55 -10 0 -7 -6 -13 -14 -12 -8 0 -15 -2 -15 -6 -3 -28 0
-38 9 -33 6 3 10 3 10 -2 0 -10 -66 -53 -81 -53 -6 0 -22 9 -36 20 -34 26 -47
25 -113 -10 -79 -43 -95 -40 -120 25 -11 28 -10 28 8 12 20 -18 57 -24 47 -7
-3 6 3 10 13 10 11 0 26 8 33 17 10 11 10 14 2 9 -8 -4 -13 -2 -13 5 0 7 10 9
27 6 36 -7 81 17 89 46 5 22 10 23 58 19 30 -2 56 0 59 4 3 5 -21 10 -52 11
-32 1 -71 9 -87 18 -39 20 -103 19 -135 -3 -14 -9 -39 -26 -56 -37 -29 -19
-33 -25 -33 -44 0 -4 -15 -11 -34 -14 -19 -3 -52 -18 -75 -32 -49 -33 -80 -35
-119 -6 -64 45 -133 18 -200 -80 -68 -99 -110 -107 -98 -19 7 53 0 80 -20 80
-8 0 -14 10 -14 25 0 34 77 110 124 123 20 6 50 22 67 36 31 26 114 56 158 56
30 1 108 40 183 93 40 27 73 41 125 51 43 8 97 28 136 50 54 30 69 34 89 26
23 -10 23 -10 1 -6 -13 2 -23 3 -23 1 0 -12 82 -48 115 -50 22 -2 41 -4 43 -4
1 -1 -2 -10 -8 -22 -9 -16 -8 -26 5 -46 10 -14 12 -22 6 -19 -15 10 -91 -12
-91 -26 0 -6 -3 -8 -7 -5 -8 8 -33 -12 -33 -26 0 -6 6 -3 13 7 11 15 12 12 9
-22 -3 -34 1 -42 32 -70 42 -37 77 -41 105 -11 15 17 23 19 39 10 41 -22 88
-13 116 20 29 34 33 67 12 108 -16 29 -74 85 -98 93 -11 4 -10 8 2 23 14 17
14 17 -7 7 -12 -7 -38 -12 -59 -12 l-37 0 27 25 c28 26 63 35 50 13 -6 -10 -4
-10 7 0 21 20 55 14 90 -15 28 -24 31 -25 21 -6 -7 12 -20 24 -30 27 -9 3 -22
21 -28 39 l-10 34 43 11 c23 7 82 29 130 51 118 53 163 63 261 63 45 0 82 4
82 9 0 24 34 4 65 -40z m575 24 c-7 -9 -15 -13 -18 -10 -3 2 1 11 8 20 7 9 15
13 18 10 3 -2 -1 -11 -8 -20z m98 -5 c-12 -16 -28 -30 -36 -30 -10 0 -5 10 14
29 38 39 50 39 22 1z m210 18 c-2 -6 -10 -14 -16 -16 -7 -2 -10 2 -6 12 7 18
28 22 22 4z m-531 -4 c-3 -3 -12 -4 -19 -1 -8 3 -5 6 6 6 11 1 17 -2 13 -5z
m-940 -10 c-3 -3 -12 -4 -19 -1 -8 3 -5 6 6 6 11 1 17 -2 13 -5z m1400 -26
c-12 -16 -24 -28 -29 -28 -13 0 -9 12 9 25 15 11 10 12 -32 8 -28 -3 -55 -11
-61 -19 -13 -16 -48 -19 -39 -4 4 6 11 8 16 5 5 -3 6 1 3 9 -6 16 36 33 55 22
5 -4 12 -2 16 4 3 5 23 8 44 7 l38 -2 -20 -27z m-477 18 c0 -11 -19 -15 -25
-6 -3 5 1 10 9 10 9 0 16 -2 16 -4z m120 -16 c0 -5 -7 -10 -16 -10 -8 0 -12 5
-9 10 3 6 10 10 16 10 5 0 9 -4 9 -10z m-862 -7 c-10 -2 -28 -2 -40 0 -13 2
-5 4 17 4 22 1 32 -1 23 -4z m1172 -13 c0 -5 -14 -10 -31 -10 -17 0 -28 4 -24
10 3 6 17 10 31 10 13 0 24 -4 24 -10z m-1380 -78 c19 -9 36 -24 38 -32 4 -24
-101 -19 -131 6 -19 16 -20 17 -8 1 18 -23 8 -32 -13 -11 -17 17 -86 26 -86
11 0 -4 14 -13 31 -19 23 -8 27 -13 17 -19 -7 -5 -8 -9 -2 -9 5 0 19 -7 30
-16 10 -8 -5 -3 -33 13 -75 40 -81 64 -20 82 54 16 139 12 177 -7z m-60 -67
c0 -2 -9 -9 -19 -14 -14 -8 -22 -7 -31 4 -11 13 -8 15 19 15 17 0 31 -2 31 -5z
m635 -70 c29 -28 32 -61 8 -87 -22 -24 -42 -23 -53 5 -7 18 -9 19 -9 3 -1 -10
13 -34 29 -53 36 -41 37 -57 5 -88 -47 -48 -91 -26 -104 53 -8 50 -24 82 -36
70 -3 -3 -1 -17 4 -31 8 -20 7 -30 -5 -42 -20 -19 -27 -19 -54 3 -29 23 -32
87 -7 126 42 63 176 88 222 41z m-555 -15 c70 -36 103 -105 76 -159 -29 -54
-104 -50 -93 6 6 33 -8 29 -53 -17 -46 -47 -79 -51 -115 -15 -48 47 -21 99 59
112 52 9 71 27 36 36 -19 5 -28 36 -13 50 13 13 64 7 103 -13z m-37 -174 c4
-10 1 -13 -8 -9 -8 3 -12 9 -9 14 7 12 11 11 17 -5z m-338 -42 c27 -11 -32
-34 -81 -32 -24 0 -44 3 -44 4 0 2 12 10 28 18 29 16 70 20 97 10z m45 -32 c0
-21 -34 -52 -56 -52 l-25 0 21 30 c19 27 60 42 60 22z m-176 -26 c-8 -20 44
-31 65 -13 9 8 22 17 29 22 30 16 -11 -31 -45 -54 -29 -19 -40 -21 -57 -12
l-21 11 21 -5 c14 -4 24 0 28 11 5 13 2 15 -19 10 -28 -7 -30 -4 -15 25 12 22
22 26 14 5z m61 4 c-3 -5 -14 -8 -25 -7 -24 2 -18 12 9 14 12 1 19 -2 16 -7z
m469 -15 c9 -14 26 -25 39 -25 21 -1 22 -1 3 -15 -21 -16 -87 -19 -120 -6 -17
7 -18 8 -3 14 9 3 19 2 22 -3 4 -6 15 -10 27 -10 18 0 19 2 7 17 -10 11 -10
14 -1 9 6 -4 12 -2 12 4 0 6 -7 13 -15 16 -19 8 -20 24 -1 24 7 0 21 -11 30
-25z m121 -35 c-9 -17 -20 -28 -24 -25 -5 2 -25 -2 -45 -10 -56 -23 -146 -20
-187 8 -21 14 -35 32 -37 47 -2 22 -1 23 10 9 29 -36 91 -69 130 -69 47 0 104
28 137 66 29 34 39 18 16 -26z m-677 -71 c13 -27 24 -35 50 -37 18 -2 43 3 55
11 15 9 30 11 45 6 12 -5 30 -6 40 -3 14 5 14 3 -3 -12 -21 -17 -17 -17 32 3
11 4 14 3 8 -6 -6 -10 -3 -11 15 -1 12 6 28 9 36 6 8 -3 12 -2 9 4 -3 5 4 8
15 7 11 -1 20 -7 20 -14 0 -10 5 -11 19 -3 26 14 36 13 23 -2 -8 -10 4 -14 54
-16 41 -2 64 1 64 7 0 6 -5 11 -12 11 -9 0 -9 3 0 12 17 17 46 -15 69 -77 34
-92 97 -95 187 -8 27 27 46 42 41 34 -6 -11 -4 -13 8 -8 21 8 22 -2 1 -17 -12
-9 -7 -11 26 -8 30 3 40 8 36 18 -6 16 6 26 20 16 5 -4 15 -20 22 -35 15 -35
37 -43 75 -29 23 9 36 8 59 -4 16 -8 35 -13 41 -10 7 2 4 5 -5 5 -20 1 -21 3
-12 25 9 24 20 19 34 -15 11 -26 11 -33 -1 -41 -11 -8 -11 -9 3 -4 10 3 20 1
23 -4 13 -21 52 -9 82 25 17 19 29 36 26 39 -2 2 1 7 8 12 8 4 10 3 5 -5 -9
-13 27 -29 58 -25 11 1 27 3 34 3 7 1 10 6 7 11 -3 6 1 10 9 10 10 0 13 -6 9
-16 -5 -13 -2 -15 17 -9 12 4 20 3 17 -1 -3 -5 26 -10 64 -11 67 -2 69 -2 52
16 -10 10 -27 21 -38 24 -15 4 -14 5 7 6 29 1 36 -4 71 -59 30 -46 71 -53 89
-16 11 27 41 35 54 15 4 -8 9 -8 17 0 6 6 27 12 46 12 l36 2 -35 6 -35 7 33 8
c17 4 32 12 32 18 0 31 53 52 97 37 56 -18 72 -83 32 -133 -11 -14 -16 -26
-10 -26 14 0 39 39 41 65 5 43 -1 63 -25 89 -19 20 -34 26 -67 26 -35 1 -40 3
-25 11 30 18 83 2 112 -33 61 -73 0 -182 -116 -207 -62 -14 -98 -10 -338 30
-144 24 -223 31 -455 39 -155 6 -348 19 -431 29 -82 10 -269 33 -415 51 -146
18 -272 34 -280 37 -8 3 -31 6 -50 7 -107 7 -290 31 -290 38 0 13 71 88 83 88
6 0 -4 -13 -23 -30 -26 -22 -30 -29 -17 -30 9 0 17 5 17 10 0 6 18 10 40 10
23 0 54 7 70 15 20 10 30 12 30 4 0 -7 14 -9 43 -5 23 4 62 8 86 11 l43 4 -18
-22 -19 -21 27 17 c38 24 55 21 27 -4 -22 -19 -21 -19 9 1 25 17 32 28 28 43
-7 28 11 9 32 -34z m-291 35 c-3 -3 -12 -4 -19 -1 -8 3 -5 6 6 6 11 1 17 -2
13 -5z m633 -29 c-7 -8 -17 -15 -23 -15 -6 0 -2 7 9 15 25 19 30 19 14 0z
m257 -1 c-3 -3 -12 -4 -19 -1 -8 3 -5 6 6 6 11 1 17 -2 13 -5z m-233 -12 c3
-5 -1 -9 -9 -9 -8 0 -12 4 -9 9 3 4 7 8 9 8 2 0 6 -4 9 -8z m53 -16 c0 -8 -6
-12 -14 -9 -7 3 -10 9 -7 14 8 14 21 11 21 -5z m1338 -36 c-10 -11 -23 -20
-28 -20 -6 0 -2 9 8 20 10 11 23 20 28 20 6 0 2 -9 -8 -20z m-930 -10 c-3 -5
-12 -10 -18 -10 -7 0 -6 4 3 10 19 12 23 12 15 0z m884 -17 c8 -5 -21 -33 -29
-28 -5 3 -6 -5 -3 -16 5 -19 3 -21 -20 -15 -26 6 -33 2 -61 -38 -17 -25 -40
-16 -66 26 -23 38 -27 65 -7 52 6 -5 34 -9 61 -9 42 1 53 5 70 28 16 22 22 24
35 15 9 -7 18 -14 20 -15z m-692 -13 c1 -13 -4 -20 -15 -20 -15 0 -15 2 -2 10
8 5 11 10 7 10 -5 0 -5 5 -2 10 9 14 11 13 12 -10z m2053 -510 c0 -7 -757 -10
-2250 -10 -1493 0 -2250 3 -2250 10 0 7 757 10 2250 10 1493 0 2250 -3 2250
-10z"/>
<path d="M3362 4749 c-18 -12 -31 -24 -28 -26 5 -5 66 35 66 43 0 6 -3 5 -38
-17z"/>
<path d="M3225 4505 c-3 -26 -4 -49 -2 -51 3 -3 8 16 12 41 3 26 4 49 2 51 -3
3 -8 -16 -12 -41z"/>
<path d="M3211 4294 c0 -11 3 -14 6 -6 3 7 2 16 -1 19 -3 4 -6 -2 -5 -13z"/>
<path d="M4136 4094 c-3 -9 -6 -23 -6 -32 1 -15 3 -14 15 2 17 22 20 46 6 46
-5 0 -12 -7 -15 -16z"/>
<path d="M4010 4121 c-12 -24 -13 -54 -1 -47 13 9 32 66 21 66 -5 0 -14 -9
-20 -19z"/>
<path d="M3235 3565 c-3 -26 -4 -49 -2 -52 3 -3 9 16 12 42 4 25 5 48 2 51 -2
3 -8 -16 -12 -41z"/>
<path d="M3172 3247 c-6 -18 -12 -40 -11 -48 0 -8 7 4 15 25 8 22 13 44 11 49
-1 4 -8 -7 -15 -26z"/>
<path d="M3186 3202 c-16 -48 -13 -88 6 -76 5 3 7 16 4 29 -3 12 -1 37 5 54 6
18 9 34 6 37 -3 3 -12 -17 -21 -44z"/>
<path d="M3175 3040 c-18 -8 -17 -9 8 -9 15 -1 27 4 27 9 0 12 -8 12 -35 0z"/>
<path d="M3092 2700 c0 -14 2 -19 5 -12 2 6 2 18 0 25 -3 6 -5 1 -5 -13z"/>
<path d="M4141 3786 c-21 -25 -30 -83 -17 -102 11 -15 15 -14 35 12 36 45 18
133 -18 90z"/>
<path d="M2780 3603 c0 -6 9 -21 21 -34 l20 -24 -17 30 c-24 39 -24 40 -24 28z"/>
<path d="M2779 3536 c14 -14 29 -26 34 -26 13 0 -12 29 -37 42 -19 10 -18 8 3
-16z"/>
<path d="M2760 3464 c0 -14 3 -23 8 -21 4 3 6 -23 4 -56 -2 -55 -1 -60 11 -39
10 18 15 20 26 10 8 -7 6 1 -4 18 -17 29 -17 34 -1 64 21 44 21 45 -14 47 -26
2 -30 -1 -30 -23z"/>
<path d="M2844 3325 c3 -26 42 -105 51 -105 2 0 3 10 2 23 -4 33 -26 69 -39
61 -7 -5 -9 -2 -6 8 4 8 2 21 -3 29 -6 10 -8 5 -5 -16z m46 -69 c0 -6 -7 -1
-15 10 -8 10 -15 23 -15 28 0 6 7 1 15 -10 8 -10 15 -23 15 -28z"/>
<path d="M2893 3313 c6 -18 15 -33 19 -33 14 0 9 17 -12 41 l-19 24 12 -32z"/>
<path d="M2936 3271 c-5 -7 -3 -18 3 -24 14 -14 20 -6 11 17 -5 15 -9 16 -14
7z"/>
<path d="M2805 3171 c-12 -4 -21 -16 -23 -31 l-3 -25 28 27 c29 30 29 38 -2
29z"/>
<path d="M2840 3160 c0 -5 14 -10 30 -10 17 0 30 5 30 10 0 6 -13 10 -30 10
-16 0 -30 -4 -30 -10z"/>
<path d="M2780 3082 c0 -35 5 -41 31 -35 29 8 22 57 -8 61 -19 3 -23 -1 -23
-26z"/>
<path d="M2908 2994 c-16 -8 -28 -19 -28 -25 0 -8 34 10 69 38 12 9 -18 0 -41
-13z"/>
<path d="M3200 3356 c0 -14 5 -26 10 -26 6 0 10 9 10 19 0 11 -4 23 -10 26 -6
4 -10 -5 -10 -19z"/>
<path d="M1871 2834 c0 -11 3 -14 6 -6 3 7 2 16 -1 19 -3 4 -6 -2 -5 -13z"/>
<path d="M2402 2699 c-15 -63 -15 -72 0 -67 8 3 13 27 14 61 1 31 1 57 0 57
-2 0 -8 -23 -14 -51z"/>
<path d="M4009 2865 c-3 -21 -9 -30 -21 -29 -19 2 -24 -11 -9 -20 18 -11 43
20 39 49 l-4 30 -5 -30z"/>
<path d="M3499 2849 c-24 -20 -24 -20 -1 -9 14 7 22 7 22 1 0 -13 -35 -32 -44
-24 -3 3 -6 1 -6 -5 0 -15 6 -15 30 -2 24 13 43 47 31 54 -5 3 -20 -3 -32 -15z"/>
<path d="M3763 2834 c31 -9 18 -23 -25 -27 l-43 -4 45 1 c33 1 45 5 45 16 0 8
-9 16 -20 17 -16 1 -16 1 -2 -3z"/>
<path d="M3888 2793 c12 -2 32 -2 45 0 12 2 2 4 -23 4 -25 0 -35 -2 -22 -4z"/>
<path d="M4025 2770 c3 -5 11 -10 16 -10 6 0 7 5 4 10 -3 6 -11 10 -16 10 -6
0 -7 -4 -4 -10z"/>
<path d="M3888 2753 c12 -2 32 -2 45 0 12 2 2 4 -23 4 -25 0 -35 -2 -22 -4z"/>
<path d="M4048 2738 c5 -5 16 -8 23 -6 8 3 3 7 -10 11 -17 4 -21 3 -13 -5z"/>
<path d="M3841 2714 c0 -11 5 -28 12 -37 11 -16 15 -16 32 -3 16 12 17 16 6
30 -7 9 -18 16 -24 16 -6 0 -3 -6 8 -13 13 -11 15 -16 6 -22 -15 -9 -27 2 -34
30 -5 20 -5 19 -6 -1z"/>
<path d="M4321 2713 c19 -25 32 -33 42 -26 4 2 3 11 -4 19 -6 7 -15 11 -20 8
-5 -3 -9 0 -9 5 0 6 -5 11 -11 11 -8 0 -7 -6 2 -17z"/>
<path d="M4020 2700 c-21 -7 -21 -8 -5 -9 11 0 27 4 35 9 18 11 5 11 -30 0z"/>
<path d="M4145 2700 c4 -6 11 -8 16 -5 14 9 11 15 -7 15 -8 0 -12 -5 -9 -10z"/>
<path d="M4185 2683 c7 -24 -9 -33 -18 -10 -4 9 -6 9 -6 0 -1 -17 19 -27 31
-15 7 7 6 16 -1 29 -11 16 -11 16 -6 -4z"/>
<path d="M3953 2683 c9 -2 23 -2 30 0 6 3 -1 5 -18 5 -16 0 -22 -2 -12 -5z"/>
<path d="M3985 2603 c0 -14 -6 -28 -14 -31 -10 -3 -12 1 -8 17 3 11 1 19 -4
15 -14 -8 -11 -44 4 -44 7 0 18 5 25 12 13 13 16 58 4 58 -4 0 -8 -12 -7 -27z"/>
<path d="M3682 2596 c7 -8 15 -12 17 -11 5 6 -10 25 -20 25 -5 0 -4 -6 3 -14z"/>
<path d="M4389 2593 c-13 -16 -12 -17 4 -4 16 13 21 21 13 21 -2 0 -10 -8 -17
-17z"/>
<path d="M4399 2573 c-13 -16 -12 -17 4 -4 16 13 21 21 13 21 -2 0 -10 -8 -17
-17z"/>
<path d="M4016 2540 c-14 -22 -22 -40 -17 -40 10 0 54 70 48 76 -2 3 -16 -14
-31 -36z"/>
<path d="M3826 2546 c-9 -14 -16 -31 -16 -38 0 -7 9 2 21 21 23 39 20 54 -5
17z"/>
<path d="M4245 2540 c-10 -11 -16 -22 -13 -25 3 -3 13 6 22 20 20 30 16 32 -9
5z"/>
<path d="M4320 2550 c-9 -6 -10 -10 -3 -10 6 0 15 5 18 10 8 12 4 12 -15 0z"/>
<path d="M4150 2530 c-8 -5 -12 -12 -9 -15 4 -3 12 1 19 10 14 17 11 19 -10 5z"/>
<path d="M2555 2779 c-4 -6 -5 -12 -2 -15 2 -3 7 2 10 11 7 17 1 20 -8 4z"/>
<path d="M1716 2687 c3 -10 9 -15 12 -12 3 3 0 11 -7 18 -10 9 -11 8 -5 -6z"/>
<path d="M1611 2514 c0 -11 3 -14 6 -6 3 7 2 16 -1 19 -3 4 -6 -2 -5 -13z"/>
<path d="M2082 2675 c0 -16 2 -22 5 -12 2 9 2 23 0 30 -3 6 -5 -1 -5 -18z"/>
<path d="M2072 2600 c0 -19 2 -27 5 -17 2 9 2 25 0 35 -3 9 -5 1 -5 -18z"/>
<path d="M2061 2504 c0 -11 3 -14 6 -6 3 7 2 16 -1 19 -3 4 -6 -2 -5 -13z"/>
<path d="M1520 2565 c0 -5 5 -17 10 -25 5 -8 10 -10 10 -5 0 6 -5 17 -10 25
-5 8 -10 11 -10 5z"/>
<path d="M4440 2471 c0 -13 51 -32 102 -38 33 -4 48 -2 48 6 0 6 -15 11 -34
11 -18 0 -52 7 -75 15 -22 8 -41 11 -41 6z"/>
<path d="M4518 2473 c7 -3 16 -2 19 1 4 3 -2 6 -13 5 -11 0 -14 -3 -6 -6z"/>
<path d="M4390 2440 c0 -5 7 -10 17 -10 9 0 37 -13 62 -29 56 -35 87 -45 96
-31 3 5 -1 10 -10 10 -9 0 -46 16 -82 35 -70 37 -83 41 -83 25z"/>
<path d="M3175 2330 c-3 -6 1 -7 9 -4 18 7 21 14 7 14 -6 0 -13 -4 -16 -10z"/>
<path d="M3204 2314 c-18 -14 -18 -15 4 -4 12 6 22 13 22 15 0 8 -5 6 -26 -11z"/>
<path d="M3550 2210 c-8 -5 -10 -10 -5 -10 6 0 17 5 25 10 8 5 11 10 5 10 -5
0 -17 -5 -25 -10z"/>
<path d="M3625 2190 c-13 -5 -14 -9 -5 -9 8 0 24 4 35 9 13 5 14 9 5 9 -8 0
-24 -4 -35 -9z"/>
<path d="M2381 2227 c-1 -4 -21 -72 -45 -150 -44 -141 -65 -228 -52 -216 11
10 106 353 102 364 -3 5 -5 6 -5 2z"/>
<path d="M1652 2193 c-24 -24 -24 -25 -2 -8 42 33 44 35 37 35 -4 0 -19 -12
-35 -27z"/>
<path d="M1699 2163 l-24 -28 28 24 c25 23 32 31 24 31 -2 0 -14 -12 -28 -27z"/>
<path d="M1644 2118 l-19 -23 23 19 c21 18 27 26 19 26 -2 0 -12 -10 -23 -22z"/>
<path d="M2076 2109 c3 -6 1 -15 -6 -19 -9 -6 -9 -13 -1 -28 16 -29 14 -52 -5
-52 -13 0 -13 -2 2 -17 13 -14 18 -15 22 -5 3 9 8 6 16 -9 6 -12 17 -24 24
-27 11 -3 12 0 4 14 -5 11 -17 49 -27 87 -10 37 -22 67 -27 67 -5 0 -6 -5 -2
-11z"/>
<path d="M2276 2003 c-29 -128 -29 -129 -18 -118 5 6 17 44 26 85 9 41 19 83
22 93 3 9 1 17 -3 17 -5 0 -17 -35 -27 -77z"/>
<path d="M2040 2030 c-23 -7 -23 -8 -3 -9 12 -1 25 4 28 9 3 6 5 10 3 9 -2 -1
-14 -5 -28 -9z"/>
<path d="M3080 2200 c8 -5 24 -10 35 -10 17 0 17 2 5 10 -8 5 -24 10 -35 10
-17 0 -17 -2 -5 -10z"/>
<path d="M3105 2110 c-27 -30 -12 -34 15 -5 13 14 19 25 13 25 -5 0 -18 -9
-28 -20z"/>
<path d="M3121 2080 l-23 -20 28 0 c20 0 25 3 15 9 -11 7 -10 11 5 20 11 6 15
10 9 10 -5 0 -21 -9 -34 -19z"/>
<path d="M3237 2049 c7 -7 15 -10 18 -7 3 3 -2 9 -12 12 -14 6 -15 5 -6 -5z"/>
<path d="M3505 2030 c-3 -6 1 -7 10 -4 8 4 22 1 30 -6 9 -7 15 -8 15 -2 0 19
-45 29 -55 12z"/>
<path d="M4372 1998 c-6 -13 -21 -39 -32 -58 l-22 -35 24 27 c32 38 61 88 50
88 -5 0 -14 -10 -20 -22z"/>
<path d="M3216 1952 c-4 -7 -2 -12 4 -12 6 0 9 -4 6 -8 -2 -4 5 -8 17 -9 12 0
16 1 9 4 -6 3 -9 10 -6 15 4 6 2 8 -4 4 -5 -3 -12 -1 -14 6 -3 9 -6 9 -12 0z"/>
<path d="M3366 1901 c-4 -5 -2 -12 3 -15 5 -4 12 -2 15 3 4 5 2 12 -3 15 -5 4
-12 2 -15 -3z"/>
<path d="M3342 1874 c10 -10 20 -15 24 -12 3 4 -5 12 -18 18 -22 12 -22 12 -6
-6z"/>
<path d="M3720 1705 c19 -19 36 -35 39 -35 3 0 -10 16 -29 35 -19 19 -36 35
-39 35 -3 0 10 -16 29 -35z"/>
<path d="M3520 1662 c0 -4 10 -13 23 -21 22 -14 22 -14 3 8 -20 22 -26 25 -26
13z"/>
<path d="M2842 1806 c-13 -36 -76 -106 -95 -106 -7 0 -21 -7 -31 -15 -19 -14
-19 -15 -1 -35 14 -15 15 -20 4 -20 -8 -1 -3 -7 9 -14 28 -15 103 -6 150 18
57 29 84 103 58 155 -31 59 -76 67 -94 17z m88 -49 c0 -23 -18 -57 -30 -57 -5
0 -4 13 2 30 5 17 7 43 4 58 -6 26 -6 26 9 8 8 -11 15 -28 15 -39z m-40 35 c0
-5 -7 -9 -15 -9 -8 0 -15 4 -15 9 0 4 7 8 15 8 8 0 15 -4 15 -8z m3 -43 c-4
-12 -11 -18 -20 -15 -8 3 -17 6 -19 6 -2 0 -4 4 -4 9 0 8 15 15 42 20 3 0 4
-8 1 -20z m-68 -39 c3 -5 2 -10 -4 -10 -5 0 -13 5 -16 10 -3 6 -2 10 4 10 5 0
13 -4 16 -10z m45 -4 c0 -2 -8 -10 -17 -17 -16 -13 -17 -12 -4 4 13 16 21 21
21 13z"/>
<path d="M3135 1820 c-3 -5 -1 -10 4 -10 6 0 11 5 11 10 0 6 -2 10 -4 10 -3 0
-8 -4 -11 -10z"/>
<path d="M3218 1813 c6 -2 18 -2 25 0 6 3 1 5 -13 5 -14 0 -19 -2 -12 -5z"/>
<path d="M3298 1727 c-30 -8 -40 -18 -53 -49 -19 -49 -19 -58 3 -58 9 0 26 -7
36 -15 23 -17 69 -19 97 -5 22 12 49 61 49 89 0 43 -56 60 -132 38z"/>
<path d="M2077 1633 c-58 -19 -137 -88 -154 -132 -6 -17 -8 -31 -3 -31 4 0 6
-10 4 -22 -2 -13 -1 -17 2 -10 5 10 10 7 18 -10 18 -35 58 -31 71 7 10 30 22
45 38 45 5 0 6 -4 3 -8 -3 -5 1 -9 9 -9 8 0 15 4 15 9 0 5 6 6 13 3 6 -4 4 0
-5 8 -27 22 -21 31 8 13 33 -22 44 -18 58 24 12 37 26 41 102 25 40 -9 49 6
30 43 -32 62 -108 78 -209 45z m163 -18 c17 -9 30 -17 30 -19 0 -3 3 -12 7
-22 6 -17 5 -17 -17 -1 -27 19 -81 22 -111 7 -14 -8 -19 -21 -19 -52 0 -46
-10 -47 -13 -2 -3 27 -5 29 -42 26 -53 -5 -75 -26 -75 -73 0 -21 -5 -41 -12
-45 -7 -5 -9 -2 -5 8 3 9 1 20 -5 26 -17 17 10 79 44 104 30 21 134 56 171 57
10 1 31 -6 47 -14z m-6 -43 c2 -4 -11 -6 -30 -4 -19 2 -34 6 -34 8 0 8 59 4
64 -4z m-159 -42 c3 -5 -7 -8 -24 -7 -16 1 -27 5 -24 10 6 10 41 9 48 -3z"/>
<path d="M3377 1575 c-22 -7 -48 -23 -58 -34 -19 -20 -19 -21 -1 -21 28 0 94
-82 78 -97 -3 -3 -10 6 -15 21 -6 14 -15 26 -21 26 -5 0 -1 -21 9 -47 12 -31
25 -48 35 -47 10 1 17 -7 18 -20 1 -11 3 -30 4 -41 1 -11 2 -28 3 -38 1 -16 7
-17 49 -11 94 13 145 68 144 151 -2 65 -36 118 -96 148 -56 28 -93 31 -149 10z
m48 -55 c-3 -5 -11 -10 -16 -10 -6 0 -7 5 -4 10 3 6 11 10 16 10 6 0 7 -4 4
-10z m155 -75 c0 -19 -4 -35 -10 -35 -5 0 -10 12 -10 28 0 21 -2 24 -10 12 -7
-11 -10 -7 -10 18 0 30 2 32 20 22 14 -8 20 -21 20 -45z m-110 35 c0 -5 -7
-10 -16 -10 -8 0 -12 5 -9 10 3 6 10 10 16 10 5 0 9 -4 9 -10z"/>
<path d="M2366 1487 c3 -10 9 -15 12 -12 3 3 0 11 -7 18 -10 9 -11 8 -5 -6z"/>
<path d="M1677 1432 c-10 -10 -17 -24 -17 -30 0 -6 -4 -14 -10 -17 -6 -4 -7 1
-3 12 6 16 5 16 -10 5 -18 -15 -12 -41 9 -43 8 -1 17 -2 22 -3 100 -25 125
-28 154 -20 27 8 34 15 36 42 3 27 -2 35 -30 52 -44 27 -128 28 -151 2z"/>
<path d="M2994 1435 c16 -9 31 -13 34 -10 3 3 0 5 -7 5 -7 0 -9 5 -6 10 4 6
-6 10 -22 10 l-28 0 29 -15z"/>
<path d="M3039 1374 c-26 -7 -52 -20 -58 -28 -7 -8 -19 -12 -27 -9 -8 3 -14 0
-14 -7 0 -6 6 -8 13 -5 6 4 3 -1 -7 -9 -11 -9 -34 -16 -50 -16 -28 -1 -29 -2
-14 -14 10 -7 14 -16 10 -21 -4 -4 17 -4 46 0 44 6 51 5 46 -8 -8 -22 34 -47
81 -47 44 0 144 26 160 41 5 5 15 9 22 9 14 0 37 20 61 51 19 26 4 49 -32 49
-17 0 -56 7 -86 15 -67 18 -91 18 -151 -1z m214 -20 c42 -5 48 -9 45 -28 -6
-42 -199 -117 -250 -96 -13 5 -17 9 -8 10 11 0 11 3 -4 11 -14 9 -21 8 -28 -2
-7 -11 -8 -9 -6 6 4 24 94 77 121 71 10 -2 14 0 10 6 -4 8 12 9 53 5 40 -4 52
-3 37 3 -35 14 -96 15 -121 1 -13 -7 -26 -10 -29 -7 -4 3 -13 0 -21 -7 -11 -8
-14 -8 -9 0 4 6 2 15 -4 19 -8 4 -7 9 2 16 13 8 102 5 212 -8z m-234 -27 c-9
-7 -14 -18 -12 -24 3 -8 -4 -13 -17 -13 -27 0 -24 32 3 36 11 1 21 5 25 8 3 3
8 6 11 6 3 0 -1 -6 -10 -13z"/>
<path d="M3170 1310 c0 -5 7 -10 16 -10 8 0 12 5 9 10 -3 6 -10 10 -16 10 -5
0 -9 -4 -9 -10z"/>
<path d="M1529 1363 c-13 -16 -12 -17 4 -4 9 7 17 15 17 17 0 8 -8 3 -21 -13z"/>
<path d="M1556 1361 c-4 -6 -1 -11 6 -11 10 0 9 -3 -2 -9 -8 -6 -18 -7 -24 -4
-5 3 -6 1 -2 -6 4 -6 1 -14 -8 -17 -20 -8 -10 -30 13 -30 15 0 17 4 11 17 -9
17 -4 29 12 29 5 0 6 -4 3 -10 -3 -5 -1 -10 5 -10 7 0 9 7 6 16 -4 11 -2 15 7
11 8 -3 20 -1 28 4 11 7 9 9 -6 9 -12 0 -26 5 -32 11 -8 8 -13 8 -17 0z"/>
<path d="M1870 1310 l-35 -7 32 -2 c17 0 35 4 38 9 3 6 5 9 3 9 -2 -1 -19 -5
-38 -9z"/>
<path d="M2328 1283 c6 -2 18 -2 25 0 6 3 1 5 -13 5 -14 0 -19 -2 -12 -5z"/>
<path d="M2690 1220 c14 -4 36 -8 50 -8 23 -1 23 0 5 8 -11 5 -33 8 -50 8 -29
0 -29 0 -5 -8z"/>
<path d="M2976 1547 c3 -10 9 -15 12 -12 3 3 0 11 -7 18 -10 9 -11 8 -5 -6z"/>
<path d="M1733 1203 c9 -2 23 -2 30 0 6 3 -1 5 -18 5 -16 0 -22 -2 -12 -5z"/>
<path d="M2038 1188 c11 -14 10 -17 -5 -21 -10 -3 0 -5 21 -6 22 0 37 0 35 2
-2 2 -17 11 -34 22 -23 14 -27 15 -17 3z"/>
<path d="M1980 1170 c20 -13 33 -13 25 0 -3 6 -14 10 -23 10 -15 0 -15 -2 -2
-10z"/>
<path d="M2550 1150 c0 -6 7 -10 15 -10 8 0 15 2 15 4 0 2 -7 6 -15 10 -8 3
-15 1 -15 -4z"/>
<path d="M2505 1130 c-3 -5 -16 -10 -28 -11 -21 0 -21 -1 -2 -9 25 -11 41 -12
32 -3 -4 3 -2 12 4 20 6 7 9 13 6 13 -3 0 -9 -4 -12 -10z"/>
<path d="M2548 1103 c6 -2 18 -2 25 0 6 3 1 5 -13 5 -14 0 -19 -2 -12 -5z"/>
<path d="M3718 1073 c7 -3 16 -2 19 1 4 3 -2 6 -13 5 -11 0 -14 -3 -6 -6z"/>
</g>
</svg>
